<?xml version="1.0" encoding="UTF-8"?>
<svg width="1228px" height="409px" viewBox="0 0 1228 409" version="1.1" xmlns="http://www.w3.org/2000/svg" xmlns:xlink="http://www.w3.org/1999/xlink">
    <title>Logo bleu</title>
    <g id="Logo-bleu" stroke="none" stroke-width="1" fill="none" fill-rule="evenodd">
        <g id="nc" transform="translate(49.000000, 44.000000)" fill="#194F9A">
            <text id="Bullao" font-family="Oxygen-Bold, Oxygen" font-size="253.500038" font-weight="bold" letter-spacing="0.94766371">
                <tspan x="349.947862" y="260">Bullao</tspan>
            </text>
            <g id="Group-2" transform="translate(0.000000, 15.210002)">
                <path d="M146.551155,0 C149.417864,-5.26605994e-16 152.284051,0.0774452122 155.146577,0.232250885 L155.146577,0.232250885 L155.549911,0.254063214 C158.142803,0.394287046 160.72823,0.64906295 163.298619,1.01764485 L163.298619,1.01764485 L163.811225,1.09115021 C166.04108,1.41090097 168.267737,1.7525602 170.490876,2.1160784 L170.490876,2.1160784 L170.655438,2.1429869 C172.768173,2.48845234 174.867148,2.91336332 176.9479,3.41681645 L176.9479,3.41681645 L177.93807,3.65639525 C179.359438,4.00030578 180.779146,4.35104729 182.197142,4.7086076 L182.197142,4.7086076 L182.88554,4.8821931 C184.761993,5.35535715 186.622769,5.8886497 188.464993,6.48124646 L188.464993,6.48124646 L188.829773,6.59858703 C190.91551,7.26951603 192.989802,7.97552099 195.051765,8.71630163 L195.051765,8.71630163 L195.109449,8.7370254 C197.209403,9.49145478 199.283006,10.317314 201.326637,11.2131617 L201.326637,11.2131617 L201.778315,11.4111595 C203.984594,12.3783056 206.170188,13.3919677 208.333634,14.4514668 L208.333634,14.4514668 L208.479815,14.5230553 C210.545585,15.5347196 212.580559,16.6080913 214.581996,17.7417237 C216.583548,18.8754216 218.555471,20.0606511 220.49579,21.2962255 L220.49579,21.2962255 L220.924528,21.5692411 C223.15077,22.9868884 225.348234,24.4492301 227.515583,25.9553765 L227.515583,25.9553765 L228.254292,26.468724 C230.321329,27.9051607 232.341931,29.4072904 234.313004,30.972813 C236.284156,32.5383976 238.208894,34.161546 240.084728,35.8401581 L240.084728,35.8401581 L241.123359,36.7695891 C243.033858,38.4792214 244.914045,40.2224285 246.763041,41.9983966 L246.763041,41.9983966 L247.222193,42.4394141 C248.76489,43.9211805 250.263132,45.4485447 251.714929,47.0194773 C253.16687,48.5905648 254.583793,50.1936555 255.964655,51.8275673 L255.964655,51.8275673 L256.187387,52.0911161 C257.716784,53.9007823 259.213591,55.7377413 260.677085,57.6011064 L260.677085,57.6011064 L262.366718,59.7523981 C263.687491,61.4340454 264.955238,63.1566714 266.168094,64.9177395 C267.381075,66.6789907 268.55196,68.4688652 269.679756,70.2858423 L269.679756,70.2858423 L269.886388,70.618744 C271.130391,72.6229422 272.329086,74.6549112 273.481559,76.7131047 C274.634063,78.7713543 275.745371,80.8524026 276.814818,82.9550063 L276.814818,82.9550063 L276.90975,83.1416487 C278.042331,85.3683785 279.107161,87.6289246 280.102773,89.9201735 L280.102773,89.9201735 L280.237251,90.2296535 C281.322656,92.7275464 282.363012,95.2447739 283.357813,97.7801129 L283.357813,97.7801129 L283.573013,98.3285669 C284.475334,100.628213 285.287322,102.962288 286.007112,105.325434 L286.007112,105.325434 L286.011795,105.340809 C286.728711,107.694518 287.416062,110.05713 288.073685,112.428088 C288.730956,114.797778 289.27429,117.197605 289.701817,119.61931 L289.701817,119.61931 L289.70719,119.649748 C290.138536,122.093085 290.547392,124.540339 290.933707,126.991199 L290.933707,126.991199 L290.957716,127.143515 C291.359745,129.694065 291.622091,132.26468 291.74358,134.843861 L291.74358,134.843861 L291.80094,136.061593 C291.954983,139.331872 292.032036,142.605324 292.032036,145.879229 L292.032036,145.879229 L292.032036,147.74686 C292.032036,149.775371 291.953506,151.803122 291.796623,153.825557 C291.639703,155.848471 291.435219,157.867413 291.183341,159.880709 L291.183341,159.880709 L291.175406,159.94414 C290.918429,161.998195 290.539867,164.035202 290.041714,166.044436 L290.041714,166.044436 L289.525993,168.124531 C289.215438,169.377114 288.910198,170.631008 288.610282,171.886181 L288.610282,171.886181 L288.118515,173.944261 C287.702392,175.685767 287.216445,177.409845 286.66185,179.112322 C286.107303,180.814651 285.477661,182.491595 284.774774,184.138228 L284.774774,184.138228 L284.439475,184.923723 C283.923355,186.132821 283.364944,187.323426 282.765274,188.493337 C282.165574,189.663305 281.528365,190.813665 280.854636,191.942627 L280.854636,191.942627 L280.815444,192.008301 C280.115755,193.180765 279.3646,194.32174 278.564175,195.427886 L278.564175,195.427886 L278.385029,195.675458 C277.464972,196.94693 276.50861,198.191732 275.517124,199.408326 L275.517124,199.408326 L275.373851,199.584128 C274.287868,200.916673 273.113732,202.174879 271.859347,203.350275 L271.859347,203.350275 L271.664912,203.532466 C270.279963,204.830204 268.847577,206.07637 267.370679,207.268418 L267.370679,207.268418 L267.355047,207.281035 C265.867697,208.481519 264.338013,209.628586 262.768911,210.720049 L262.768911,210.720049 L262.381295,210.989674 C261.035855,211.925557 259.640319,212.787281 258.200918,213.570998 L258.200918,213.570998 L258.113909,213.618372 C256.732157,214.3707 255.316865,215.059721 253.87243,215.683295 C252.427918,216.306902 250.957201,216.867966 249.464373,217.364926 L249.464373,217.364926 L248.506442,217.683819 C246.729379,218.2754 244.92436,218.779437 243.097896,219.19411 L243.097896,219.19411 L242.971244,219.222865 C241.228197,219.618599 239.47979,219.990339 237.726518,220.337977 L237.726518,220.337977 L237.627355,220.357639 C235.942248,220.691762 234.235481,220.905419 232.520012,220.99699 L232.520012,220.99699 L231.424481,221.055469 C230.437362,221.108161 229.449013,221.134521 228.460488,221.134521 C227.471953,221.134521 226.483584,221.108901 225.496377,221.057686 L225.496377,221.057686 L224.326429,220.99699 C222.55974,220.905337 220.797216,220.745964 219.042742,220.519223 L219.042742,220.519223 L218.740435,220.480154 C216.783825,220.227289 214.829738,219.955269 212.878456,219.664131 L212.878456,219.664131 L212.22589,219.566766 C210.442033,219.300609 208.669417,218.963905 206.912209,218.557446 L206.912209,218.557446 L206.765775,218.523575 C205.106752,218.139827 203.470049,217.665284 201.863054,217.10209 C200.254874,216.53848 198.651317,215.961765 197.052543,215.372003 L197.052543,215.372003 L196.948286,215.333544 C195.345057,214.742138 193.745162,214.141731 192.148679,213.532351 L192.148679,213.532351 L191.669305,213.349373 C190.002979,212.713335 188.3019,212.172376 186.574272,211.729107 L186.574272,211.729107 L186.138037,211.61718 C184.700083,211.248234 183.252789,210.916697 181.79762,210.622902 C180.344045,210.329429 178.87144,210.139702 177.390948,210.055158 L177.390948,210.055158 L176.300084,209.992863 C174.652052,209.898751 172.999773,209.906761 171.352731,210.016847 C169.705234,210.126964 168.064618,210.323112 166.437597,210.60449 L166.437597,210.60449 L166.331132,210.622902 C164.633778,210.916443 162.957051,211.318799 161.311323,211.827482 L161.311323,211.827482 L160.715495,212.011648 C159.161106,212.492098 157.638333,213.069426 156.156116,213.74024 L156.156116,213.74024 L156.041881,213.79194 C154.636503,214.427979 153.282817,215.172549 151.993112,216.018891 C150.703591,216.865112 149.485171,217.815007 148.349949,218.859145 L148.349949,218.859145 L148.274481,218.928558 C147.112832,219.997002 146.020386,221.13832 145.003771,222.345586 L145.003771,222.345586 L144.825697,222.557055 C143.927189,223.624066 143.075326,224.729501 142.272504,225.87025 C141.471251,227.008771 140.783987,228.223382 140.220649,229.496522 L140.220649,229.496522 L140.078424,229.81795 C139.41996,231.306076 138.881753,232.844554 138.468968,234.418625 L138.468968,234.418625 L138.189137,235.4857 C137.774907,237.065277 137.487058,238.675317 137.328315,240.300571 L137.328315,240.300571 C137.169268,241.928941 137.089824,243.559568 137.089824,245.191162 C137.089824,246.820269 137.23973,248.445919 137.537647,250.047554 L137.537647,250.047554 L137.790366,251.4062 C138.103403,253.089123 138.567887,254.740314 139.178152,256.339626 L139.178152,256.339626 L139.382305,256.874648 C139.857389,258.119695 140.397414,259.338981 141.000155,260.527488 L141.000155,260.527488 L141.504572,261.522115 C141.771236,262.047933 142.067461,262.558229 142.391823,263.050554 C142.71486,263.540869 142.967804,264.073916 143.143317,264.634235 L143.143317,264.634235 L144.079112,267.621725 C144.69471,269.587 145.172769,271.59274 145.509823,273.624405 L145.509823,273.624405 L145.582612,274.063154 C145.869239,275.790856 145.844588,277.555893 145.509823,279.274917 L145.509823,279.274917 C145.173137,281.003809 144.647314,282.686283 143.941192,284.295541 L143.941192,284.295541 L143.876455,284.443079 C143.216385,285.947384 142.298899,287.324981 141.165272,288.513894 L141.165272,288.513894 L140.900579,288.781908 C139.824248,289.834107 138.537264,290.648843 137.122723,291.17149 L137.122723,291.17149 L136.810892,291.286706 C135.476654,291.779682 134.065535,292.032036 132.643137,292.032036 C131.210563,292.032036 129.779097,291.952396 128.355365,291.793486 L128.355365,291.793486 L125.740991,291.501682 C124.185777,291.328096 122.638977,291.085986 121.105103,290.77606 C119.570547,290.465996 118.040073,290.136059 116.514067,289.786334 L116.514067,289.786334 L114.051747,289.222027 C111.787483,288.703109 109.52982,288.155802 107.27929,287.580233 C105.029637,287.004888 102.804787,286.336585 100.610464,285.577044 L100.610464,285.577044 L100.221263,285.442327 C97.7666934,284.592704 95.3261289,283.703147 92.9005412,282.77401 L92.9005412,282.77401 L92.1240173,282.476558 C90.0732536,281.691 88.0437209,280.851099 86.0375672,279.957745 C84.0314476,279.064406 82.050562,278.115445 80.0972083,277.111961 L80.0972083,277.111961 L79.2830747,276.693722 C76.7867896,275.411322 74.3137886,274.084095 71.8652732,272.712686 L71.8652732,272.712686 L71.7918986,272.671589 C69.2953001,271.273249 66.8565678,269.774014 64.4817399,268.177595 L64.4817399,268.177595 L63.6029827,267.586873 C61.599232,266.239902 59.6386241,264.829836 57.7241048,263.358794 C55.809325,261.887553 53.9262586,260.375491 52.0761996,258.823648 L52.0761996,258.823648 L51.862546,258.644434 C49.870657,256.973624 47.9472783,255.222798 46.0971416,253.396265 L46.0971416,253.396265 L45.8088719,253.111672 C43.7658427,251.094707 41.7421735,249.058226 39.7381424,247.002508 L39.7381424,247.002508 L38.2873031,245.51425 C36.0561908,243.225594 33.9778088,240.792867 32.0655774,238.231778 L32.0655774,238.231778 L31.6571818,237.684805 C30.0153404,235.485854 28.4210977,233.251762 26.8755649,230.984086 C25.3299562,228.716298 23.8216107,226.423337 22.3511357,224.106125 L22.3511357,224.106125 L21.4263527,222.648829 C19.9540327,220.32871 18.5711067,217.953056 17.2806148,215.527091 L17.2806148,215.527091 L17.2165232,215.406607 C15.9684584,213.060399 14.7757513,210.685159 13.6393914,208.28286 L13.6393914,208.28286 L13.5888241,208.175959 C12.4860884,205.844742 11.4205292,203.49612 10.3925514,201.130985 C9.36501424,198.766864 8.44285522,196.358326 7.62879364,193.912472 L7.62879364,193.912472 L7.42722555,193.306859 C6.47860245,190.456713 5.6165785,187.578472 4.84234086,184.676099 L4.84234086,184.676099 L4.62303135,183.853977 C3.86561795,181.014672 3.20891128,178.149456 2.654144,175.263705 L2.654144,175.263705 L2.5736459,174.844975 C2.07251163,172.238209 1.65906148,169.615348 1.33399448,166.980828 L1.33399448,166.980828 L1.27769752,166.524567 C0.990118358,164.193868 0.762939034,161.856114 0.596387963,159.513654 L0.596387963,159.513654 L0.58569759,159.3633 C0.426249332,157.120737 0.288763457,154.876668 0.173259735,152.631413 C0.0577723186,150.386476 9.0877172e-13,148.138941 9.09494702e-13,145.891035 L9.09494702e-13,145.891035 L9.09494702e-13,143.912825 C9.09121727e-13,140.867254 0.141194314,137.823321 0.423128227,134.790827 L0.423128227,134.790827 L0.522570965,133.721217 C0.738331189,131.40049 1.00888115,129.085184 1.33399448,126.777236 C1.6591407,124.469054 2.0128431,122.164985 2.39502039,119.865559 L2.39502039,119.865559 L2.65473694,118.302935 C2.96878036,116.413446 3.37092033,114.539659 3.85984188,112.687701 L3.85984188,112.687701 L3.9522263,112.337763 C4.37982189,110.718098 4.81633335,109.1008 5.26174082,107.485943 L5.26174082,107.485943 L5.55380521,106.427042 C6.19383444,104.106569 6.88917416,101.801708 7.63923001,99.5144285 L7.63923001,99.5144285 L7.98698347,98.4539617 C8.5625987,96.6986351 9.17210174,94.954603 9.81515082,93.2228432 C10.45823,91.4910024 11.1249443,89.7680299 11.8151071,88.0544083 L11.8151071,88.0544083 L12.0269155,87.528504 C12.8581211,85.4646837 13.752342,83.4268055 14.7083206,81.4177356 L14.7083206,81.4177356 L15.1158724,80.561231 C16.048092,78.6020925 17.0398691,76.6718527 18.0898195,74.7732056 L18.0898195,74.7732056 L18.4385557,74.1425789 C19.2562186,72.6639821 20.0948322,71.1970684 20.9541431,69.7422812 C21.8134154,68.2875596 22.7010228,66.849762 23.6164573,65.4297115 L23.6164573,65.4297115 L24.0453511,64.764398 C25.1146823,63.1056183 26.2408941,61.4842048 27.4219792,59.9030478 L27.4219792,59.9030478 L27.6277105,59.6276285 C28.671984,58.2296258 29.7242681,56.8376247 30.784511,55.451694 L30.784511,55.451694 L31.076652,55.0698125 C32.331593,53.4293759 33.6111884,51.8079478 34.9150022,50.2060805 L34.9150022,50.2060805 L35.0326174,50.0615784 C36.414272,48.3640759 37.8685316,46.7269835 39.3913383,45.1548691 L39.3913383,45.1548691 L39.9432215,44.5851163 C41.301774,43.1825747 42.6693153,41.7887679 44.0457609,40.4037822 L44.0457609,40.4037822 L44.3196821,40.1281615 C45.8781247,38.5600495 47.499043,37.0552904 49.1785023,35.6175369 L49.1785023,35.6175369 L49.2592987,35.5483687 C50.9932188,34.0639923 52.7476842,32.6037847 54.5221867,31.1681688 L54.5221867,31.1681688 L54.7950217,30.9474387 C56.7090823,29.3989169 58.6773132,27.9185772 60.6960235,26.5091955 L60.6960235,26.5091955 L60.8287109,26.4165585 C62.7595484,25.0685261 64.7035036,23.7393809 66.6602987,22.4293131 C68.6162628,21.1198015 70.6268103,19.8937169 72.6865363,18.7543551 L72.6865363,18.7543551 L73.1775058,18.4827696 C75.5456617,17.1727962 77.938665,15.9082533 80.3552017,14.6898352 L80.3552017,14.6898352 L80.5288338,14.6022899 C82.8291431,13.4424736 85.1690403,12.3628995 87.544294,11.3655198 C89.9199285,10.3679802 92.3189462,9.4270687 94.7393134,8.54358295 L94.7393134,8.54358295 L95.3385827,8.32483685 C97.5721553,7.50953509 99.8261045,6.75117808 102.098244,6.05050156 C104.370316,5.34984562 106.661327,4.71214546 108.96865,4.13813208 L108.96865,4.13813208 L111.041712,3.62239802 C113.616434,2.98186125 116.210115,2.42008821 118.819127,1.93786412 C121.426987,1.45585298 124.058125,1.10963383 126.701905,0.900606087 L126.701905,0.900606087 L127.800462,0.813749833 C130.74519,0.58092798 133.69287,0.387078032 136.642727,0.232250885 C139.592207,0.0774435744 142.545239,5.42556373e-16 145.498778,0 L145.498778,0 Z M192.151051,36.5040045 C178.751057,36.5040045 182.731495,44.6777978 184.34138,54.9363013 C185.951264,65.1948047 196.184817,76.0410168 202.043928,82.1738563 C202.134068,82.2682076 202.224214,82.3627395 202.314394,82.4574451 L202.856129,83.0277102 C208.463285,88.9408843 214.432384,95.4703025 227.837208,101.013363 C241.890653,106.824637 248.776802,107.881716 252.406213,104.234946 C256.035623,100.588176 250.958878,86.9520639 247.626433,81.1666137 C244.293988,75.3811635 240.006487,68.3306827 229.587075,57.921965 C219.167663,47.5132472 205.551044,36.5040045 192.151051,36.5040045 Z" id="Combined-Shape"></path>
            </g>
        </g>
    </g>
</svg>