<?xml version="1.0" encoding="UTF-8"?>
<svg width="100px" height="100px" viewBox="0 0 100 100" version="1.1" xmlns="http://www.w3.org/2000/svg" xmlns:xlink="http://www.w3.org/1999/xlink">
    <title>001-covid</title>
    <g id="001-covid" stroke="none" stroke-width="1" fill="none" fill-rule="evenodd">
        <g id="no-virus" transform="translate(4.000000, 4.000000)" fill="#000000" fill-rule="nonzero">
            <path d="M22.2943676,74.1191185 C22.3252738,74.632306 22.5746801,75.1077592 22.9793364,75.4250873 C29.6132193,80.6259624 37.5735554,83.3750015 46.0000008,83.3750015 C66.6085403,83.3750015 83.3750015,66.6085403 83.3750015,46.0000008 C83.3750015,37.5735554 80.6259624,29.6132193 75.4249076,22.9791567 C75.1075795,22.5745004 74.632306,22.3250942 74.1189388,22.2941879 C73.6061107,22.263102 73.1038841,22.4535707 72.7401966,22.8172582 L22.8172582,72.7401966 C22.4537504,73.1038841 22.2632817,73.6057513 22.2943676,74.1191185 L22.2943676,74.1191185 Z M65.4554856,35.1844303 C65.8085715,34.8333209 66.2885168,34.5601959 66.8435715,34.3945241 C68.3630091,33.9406334 70.0146966,34.6838209 70.6851107,36.1236569 C71.0687435,36.9475241 71.0953372,37.8624929 70.7595013,38.700196 C70.423306,39.5387976 69.7751731,40.1817195 68.9340559,40.5103679 C68.1446887,40.8187117 67.2793137,40.8064929 66.497134,40.4756882 C66.0655246,40.292946 65.5794699,40.2862976 65.1428293,40.4570007 C63.7669621,40.9948054 62.9333918,42.3897195 63.1157746,43.8491414 C63.1878293,44.4266571 63.2313136,45.0142352 63.2449699,45.5955243 C63.2823449,47.1873759 63.102298,48.7698837 62.7096808,50.2983056 C62.3418605,51.7298759 62.9905324,53.2245166 64.2869777,53.9330244 C64.697923,54.1576338 65.1800246,54.2127979 65.6308606,54.0871963 C66.4471809,53.8593525 67.3062668,53.9578213 68.049095,54.3637354 C68.8415169,54.7967822 69.4026809,55.5167901 69.6292669,56.3916885 C69.8556731,57.2655089 69.7128216,58.1698761 69.2273059,58.9382198 C68.3784622,60.2812042 66.6451965,60.8076886 65.1954777,60.1629698 C64.3146496,59.7710714 63.6776574,59.0505245 63.4016574,58.1339386 C63.265634,57.6818448 62.9569308,57.301626 62.5427511,57.0750401 C61.2561886,56.3719229 59.6625401,56.6324698 58.6676104,57.7084385 C56.493212,60.0603683 53.7226103,61.7564386 50.6558837,62.6131886 C49.2250321,63.0128136 48.2502274,64.3297434 48.2852665,65.815759 C48.2962274,66.2816887 48.4877743,66.7249778 48.8194774,67.0523684 C49.4201728,67.6451575 49.7619384,68.4352434 49.7815243,69.2772591 C49.8027275,70.1798294 49.459704,71.0257982 48.815704,71.659556 C48.1722431,72.2924154 47.3163915,72.6217826 46.4096883,72.5847669 C44.8198133,72.5213373 43.4967742,71.2816732 43.3321805,69.7013216 C43.2319148,68.7396341 43.5400789,67.8264622 44.1998914,67.129634 C44.5258446,66.7853528 44.7026571,66.3260715 44.6915164,65.8520559 C44.6573758,64.3929934 43.6403445,63.1517121 42.218657,62.8336652 C41.0780007,62.5785089 39.9720242,62.2079933 38.9113288,61.7287667 L65.4547668,35.1851491 C65.4551262,35.1847897 65.4553059,35.18461 65.4554856,35.1844303 L65.4554856,35.1844303 Z M36.2285944,64.4113215 C37.5981726,65.1399543 39.0390866,65.7129778 40.5351648,66.1185324 C39.8917038,67.3148918 39.6135476,68.6896809 39.757657,70.0736341 C40.1062507,73.4183373 42.9045242,76.0415951 46.2664774,76.175642 C46.3613524,76.1794154 46.455868,76.1812123 46.5503837,76.1812123 C48.3548056,76.1812123 50.0451259,75.491392 51.3360009,74.221181 C52.6755713,72.9033529 53.4183994,71.0705404 53.374376,69.1928059 C53.3463447,67.9935715 53.009251,66.8442903 52.4042431,65.8392981 C55.5207432,64.8348449 58.3569307,63.1055324 60.6887355,60.7882824 C61.4049699,61.9478058 62.4604543,62.8793058 63.7351574,63.4462199 C66.8029621,64.8105871 70.4702044,63.6981418 72.2652826,60.8578214 C73.2869857,59.2411729 73.5865248,57.3348682 73.1083763,55.4898369 C72.637056,53.6706807 71.4211107,52.1106338 69.7726575,51.2096806 C68.7191497,50.6339619 67.554595,50.3520322 66.3833918,50.3728759 C66.72372,48.7815634 66.8764543,47.1498212 66.8380012,45.5107118 C66.8282981,45.0936571 66.8056575,44.6739071 66.7707981,44.2555946 C67.9322981,44.4268367 69.1232669,44.2944071 70.2423606,43.8572274 C71.9919779,43.1735164 73.3964154,41.7811179 74.0953998,40.0368914 C74.804267,38.2680476 74.750181,36.3392819 73.9430248,34.6060163 C73.0966966,32.7886568 71.5104154,31.4968834 69.68497,30.9545865 L73.8053842,26.8341724 C77.7220327,32.4828287 79.7812514,39.0667585 79.7812514,46.0000008 C79.7812514,64.6271262 64.6271262,79.7812514 46.0000008,79.7812514 C39.0667585,79.7812514 32.4828287,77.7220327 26.8345317,73.8053842 L36.2285944,64.4113215 Z" id="XMLID_968_"></path>
            <path d="M78.526853,13.472969 C69.8386028,4.78471884 58.2870323,0 46,0 C36.773946,0 27.8733052,2.72154692 20.2603051,7.87031264 C19.4382347,8.42626578 19.2226097,9.54338299 19.7785629,10.3652736 C20.3343363,11.187344 21.4514535,11.4031486 22.2735238,10.8470158 C29.2897818,6.10182824 37.4943132,3.59375007 46,3.59375007 C69.3829153,3.59375007 88.4062516,22.6170863 88.4062516,46 C88.4062516,69.3829153 69.3829153,88.4062516 46,88.4062516 C22.6170863,88.4062516 3.59375007,69.3829153 3.59375007,46 C3.59375007,37.2208288 6.25222668,28.7983365 11.2820393,21.6428207 C11.8527268,20.8309926 11.6572268,19.7102816 10.8452189,19.1394144 C10.0335705,18.5687269 8.91267985,18.7642269 8.34181265,19.5762347 C2.88452349,27.3399927 0,36.4771022 0,46 C0,58.2870323 4.78471884,69.8386028 13.4731487,78.5270327 C22.1613988,87.2152828 33.7129694,92 46,92 C58.2870323,92 69.8386028,87.2152828 78.5270327,78.526853 C87.2152828,69.8386028 92,58.2870323 92,46 C92,33.7129694 87.2152828,22.1613988 78.526853,13.472969 Z" id="XMLID_970_"></path>
            <path d="M69.0206653,16.5750941 C62.3867824,11.3740393 54.4264463,8.62500016 46.0000008,8.62500016 C25.3914614,8.62500016 8.62500016,25.3914614 8.62500016,46.0000008 C8.62500016,54.4264463 11.3740393,62.3867824 16.5750941,69.020845 C16.8924222,69.4255013 17.3676956,69.6749075 17.8810628,69.7058138 C17.91718,69.70797 17.9532972,69.7090481 17.9894144,69.7090481 C18.4643285,69.7090481 18.9218128,69.5207356 19.259805,69.1827434 L69.1827434,19.259805 C69.5462513,18.8962972 69.73672,18.3942503 69.7058138,17.8810628 C69.6749075,17.3678753 69.4253216,16.8922425 69.0206653,16.5750941 Z M25.4202114,57.5149151 C24.580352,57.8433839 23.6686176,57.8106807 22.8535551,57.4230948 C22.039391,57.0360479 21.4381566,56.3469463 21.1605394,55.4826494 C20.6592113,53.9217041 21.447141,52.1880791 22.9541801,51.5358134 C23.7803832,51.1782353 24.6903208,51.1762587 25.5159848,51.5300634 C25.9495708,51.7158603 26.4385005,51.7235869 26.8778364,51.5519853 C28.2441802,51.0179541 29.0703833,49.6275322 28.886563,48.1709852 C28.8128911,47.5868212 28.768688,46.9925946 28.7548521,46.4048368 C28.7171177,44.7973524 28.9011177,43.1997508 29.3020005,41.6565945 C29.6698209,40.2402976 29.0294146,38.7607507 27.7446489,38.0587116 C27.3306489,37.8323054 26.8436958,37.7780397 26.3894458,37.9075944 C25.566477,38.1429851 24.7003833,38.0463132 23.9505473,37.636446 C23.1581254,37.2033991 22.5967817,36.4832116 22.3701957,35.6083131 C22.1437895,34.7346725 22.286641,33.8303053 22.7723364,33.0619615 C23.6186645,31.7229303 25.3483364,31.1948287 26.7953599,31.8332584 C27.6729536,32.2206646 28.3108443,32.9352818 28.5913365,33.8457584 C28.7291568,34.2931803 29.036063,34.6690866 29.4468287,34.8935163 C30.7456099,35.6032819 32.356149,35.3416569 33.3636569,34.2576022 C35.5558444,31.8992037 38.346571,30.2063677 41.4339617,29.3621958 C42.8383992,28.978024 43.7955945,27.690563 43.7612742,26.2315005 C43.7501336,25.7574848 43.552118,25.3068286 43.2103523,24.9783598 C42.5907898,24.3826958 42.2384226,23.5818286 42.2182976,22.723102 C42.1970945,21.820352 42.5402976,20.9742035 43.1844773,20.3404457 C43.828118,19.7075863 44.6834305,19.380016 45.5908524,19.4155941 C47.1713837,19.4790238 48.4933446,20.7107816 48.6656649,22.2805317 C48.7702431,23.2316176 48.4728603,24.1402973 47.8285009,24.8389223 C47.5126102,25.1814067 47.3419071,25.6333208 47.3530477,26.0992505 C47.3877274,27.5850864 48.4238056,28.8547583 49.8724462,29.1871802 C50.9807587,29.4416177 52.0561884,29.8053052 53.0884932,30.2715943 L26.5021099,56.8579776 C26.2327583,57.1163682 25.8588286,57.3434932 25.4202114,57.5149151 L25.4202114,57.5149151 Z M55.7710479,27.5888599 C54.4014697,26.860227 52.9600166,26.2868442 51.4635791,25.8812895 C52.1135088,24.6725317 52.391126,23.2821098 52.2380322,21.8879145 C51.8730869,18.5651331 49.077329,15.9584065 45.7349618,15.8243597 C43.8243445,15.7487112 42.0233367,16.4415862 40.6645398,17.7781019 C39.3246101,19.09593 38.5814226,20.9291019 38.6256257,22.8071957 C38.653657,24.0089457 38.990032,25.1573286 39.5945007,26.161063 C36.4790788,27.1653364 33.6434303,28.8939302 31.3109068,31.211899 C30.5910787,30.0462662 29.5284068,29.1111724 28.2465161,28.5453365 C25.1839223,27.1939067 21.5244066,28.3101255 19.7347191,31.1418209 C18.713016,32.7584693 18.4134769,34.6645944 18.8916253,36.5096257 C19.3631254,38.3289616 20.578891,39.8890085 22.2275238,40.7899617 C23.2821098,41.3662195 24.4454067,41.6479695 25.6167895,41.6273054 C25.2764614,43.218618 25.123727,44.8500008 25.1621801,46.4889305 C25.1718833,46.9052665 25.1943442,47.3242977 25.2292036,47.7420712 C23.9873832,47.5573524 22.7159145,47.7228446 21.5269223,48.2374696 C18.34268,49.6153134 16.6789534,53.2803994 17.73893,56.5812588 C18.3229144,58.3996964 19.5915082,59.851212 21.3107582,60.6686105 C21.6350941,60.8227824 21.9700316,60.9485636 22.3112582,61.0486495 L18.1946175,65.1652902 C14.277969,59.517173 12.2187502,52.9332431 12.2187502,46.0000008 C12.2187502,27.3728755 27.3728755,12.2187502 46.0000008,12.2187502 C52.9332431,12.2187502 59.517173,14.277969 65.1654699,18.1946175 L55.7710479,27.5888599 Z" id="XMLID_984_"></path>
            <path d="M15.0452346,16.2437503 C15.5178128,16.2437503 15.9814065,16.0514847 16.3156253,15.7172659 C16.6498441,15.3812503 16.8421097,14.9194534 16.8421097,14.4468753 C16.8421097,13.9725003 16.6498441,13.5107034 16.3156253,13.1746877 C15.9814065,12.840469 15.5178128,12.6500002 15.0452346,12.6500002 C14.5708596,12.6500002 14.1090628,12.840469 13.774844,13.1746877 C13.4406252,13.5089065 13.2483596,13.9725003 13.2483596,14.4468753 C13.2483596,14.9194534 13.4406252,15.3830472 13.774844,15.7172659 C14.1090628,16.0514847 14.5708596,16.2437503 15.0452346,16.2437503 L15.0452346,16.2437503 Z" id="XMLID_996_"></path>
            <path d="M55.1640635,55.2844541 C55.6366416,55.2844541 56.1002354,55.0921885 56.4344541,54.7579697 C56.7686729,54.423751 56.9609385,53.9601572 56.9609385,53.4875791 C56.9609385,53.0132041 56.7686729,52.5514072 56.4344541,52.2153916 C56.1002354,51.8811728 55.6366416,51.6907041 55.1640635,51.6907041 C54.6914854,51.6907041 54.2278916,51.8811728 53.8936729,52.2153916 C53.5594541,52.5514072 53.3671885,53.0132041 53.3671885,53.4875791 C53.3671885,53.9601572 53.5594541,54.423751 53.8936729,54.7579697 C54.2278916,55.0921885 54.6914854,55.2844541 55.1640635,55.2844541 Z" id="XMLID_997_"></path>
            <path d="M37.4342976,37.3696101 C36.9617194,37.3696101 36.4981257,37.5618757 36.1639069,37.8960944 C35.8296881,38.2303132 35.6374225,38.693907 35.6374225,39.1664851 C35.6374225,39.6390632 35.8296881,40.102657 36.1639069,40.4368757 C36.4981257,40.7710945 36.9617194,40.9633601 37.4342976,40.9633601 C37.9086726,40.9633601 38.3704694,40.7710945 38.7064851,40.4368757 C39.0407038,40.102657 39.2311726,39.6390632 39.2311726,39.1664851 C39.2311726,38.693907 39.0407038,38.2303132 38.7064851,37.8960944 C38.3704694,37.5618757 37.9086726,37.3696101 37.4342976,37.3696101 Z" id="XMLID_999_"></path>
        </g>
    </g>
</svg>