<?xml version="1.0" encoding="UTF-8"?>
<svg width="100px" height="100px" viewBox="0 0 100 100" version="1.1" xmlns="http://www.w3.org/2000/svg" xmlns:xlink="http://www.w3.org/1999/xlink">
    <title>001-photo-camera</title>
    <g id="001-photo-camera" stroke="none" stroke-width="1" fill="none" fill-rule="evenodd">
        <g transform="translate(0.000000, 11.000000)" fill="#FF8B00" fill-rule="nonzero">
            <path d="M49.9998047,18.4492188 C35.8371094,18.4492188 24.3146484,29.9716797 24.3146484,44.1345703 C24.3146484,58.2974609 35.8371094,69.8197266 49.9998047,69.8197266 C64.1625,69.8197266 75.6849609,58.2974609 75.6849609,44.1345703 C75.6849609,29.9716797 64.1628906,18.4492188 49.9998047,18.4492188 Z M49.9998047,65.7300781 C38.0919922,65.7300781 28.4041016,56.0423828 28.4041016,44.134375 C28.4041016,32.2263672 38.0917969,22.5384766 49.9998047,22.5384766 C61.9078125,22.5384766 71.5955078,32.2263672 71.5955078,44.134375 C71.5955078,56.0423828 61.9078125,65.7300781 49.9998047,65.7300781 Z" id="Shape"></path>
            <path d="M49.9998047,28.1082031 C41.1628906,28.1082031 33.9734375,35.2974609 33.9734375,44.1345703 C33.9734375,52.9714844 41.1628906,60.1605469 49.9998047,60.1605469 C58.8367188,60.1605469 66.0261719,52.9712891 66.0261719,44.1345703 C66.0261719,35.2978516 58.8367188,28.1082031 49.9998047,28.1082031 Z M49.9998047,56.2863281 C43.2992187,56.2863281 37.8478516,50.8351562 37.8478516,44.1345703 C37.8478516,37.4339844 43.2992187,31.9826172 49.9998047,31.9826172 C56.7003906,31.9826172 62.1517578,37.4339844 62.1517578,44.1345703 C62.1517578,50.8351563 56.7005859,56.2863281 49.9998047,56.2863281 Z" id="Shape"></path>
            <path d="M93.5427734,11.0027344 L67.2134766,11.0027344 L64.5244141,3.67851563 C63.7335938,1.52441406 61.6607422,0.07734375 59.3660156,0.07734375 L40.6339844,0.07734375 C38.3392578,0.07734375 36.2664063,1.52460938 35.4755859,3.67851563 L32.7863281,11.0025391 L23.8398438,11.0025391 L23.8398438,8.13222656 C23.8398438,5.81796875 21.9572266,3.93496094 19.6425781,3.93496094 L13.4472656,3.93496094 C11.1330078,3.93496094 9.25,5.81796875 9.25,8.13222656 L9.25,11.0027344 L6.45722656,11.0027344 C2.89667969,11.0027344 0,13.8994141 0,17.4599609 L0,70.8091797 C0,74.3697266 2.89667969,77.2664063 6.45722656,77.2664063 L93.5427734,77.2664063 C97.1033203,77.2664063 100,74.3697266 100,70.8091797 L100,17.4599609 C100,13.8994141 97.1033203,11.0027344 93.5427734,11.0027344 Z M39.5164063,5.16230469 C39.6876953,4.69570313 40.1367188,4.38222656 40.6337891,4.38222656 L59.3658203,4.38222656 C59.8628906,4.38222656 60.3119141,4.69570313 60.4832031,5.16230469 L62.6275391,11.0027344 L37.3720703,11.0027344 L39.5164063,5.16230469 Z M13.3398438,8.13222656 C13.3398438,8.07304688 13.3880859,8.02460938 13.4474609,8.02460938 L19.6427734,8.02460938 C19.7021484,8.02460938 19.7503906,8.07304688 19.7503906,8.13222656 L19.7503906,11.0027344 L13.3398438,11.0027344 L13.3398438,8.13222656 Z M4.30488281,27.2916016 L10.6804687,27.2916016 L10.6804687,60.9771484 L4.30488281,60.9771484 L4.30488281,27.2916016 Z M95.6951172,70.8091797 C95.6951172,71.9960938 94.7294922,72.9615234 93.5427734,72.9615234 L6.45722656,72.9615234 C5.2703125,72.9615234 4.30488281,71.9958984 4.30488281,70.8091797 L4.30488281,65.2820313 L12.8328125,65.2820313 C14.0214844,65.2820313 14.9851562,64.3181641 14.9851562,63.1296875 L14.9851562,25.1392578 C14.9851562,23.9507813 14.0214844,22.9869141 12.8328125,22.9869141 L4.30488281,22.9869141 L4.30488281,17.4597656 C4.30488281,16.2728516 5.27050781,15.3074219 6.45722656,15.3074219 L65.6947266,15.3074219 C65.7003906,15.3074219 65.7056641,15.3080078 65.7111328,15.3080078 C65.7158203,15.3080078 65.7208984,15.3074219 65.7255859,15.3074219 L93.5427734,15.3074219 C94.7296875,15.3074219 95.6951172,16.2730469 95.6951172,17.4597656 L95.6951172,22.9869141 L87.1671875,22.9869141 C85.9783203,22.9869141 85.0148437,23.9507813 85.0148437,25.1392578 L85.0148437,63.1296875 C85.0148437,64.3181641 85.9785156,65.2820313 87.1671875,65.2820313 L95.6951172,65.2820313 L95.6951172,70.8091797 L95.6951172,70.8091797 Z M95.6951172,60.9771484 L89.3195313,60.9771484 L89.3195313,27.2916016 L95.6951172,27.2916016 L95.6951172,60.9771484 L95.6951172,60.9771484 Z" id="Shape"></path>
            <path d="M49.9998047,36.2158203 C45.6333984,36.2158203 42.0810547,39.7681641 42.0810547,44.1345703 C42.0810547,45.2044922 42.9482422,46.0716797 44.0181641,46.0716797 C45.0880859,46.0716797 45.9552734,45.2044922 45.9552734,44.1345703 C45.9552734,41.9044922 47.7695312,40.0902344 49.9996094,40.0902344 C51.0695312,40.0902344 51.9367187,39.2230469 51.9367187,38.153125 C51.9367187,37.0832031 51.0699219,36.2158203 49.9998047,36.2158203 Z" id="Path"></path>
        </g>
    </g>
</svg>