<?xml version="1.0" encoding="UTF-8"?>
<svg width="101px" height="100px" viewBox="0 0 101 100" version="1.1" xmlns="http://www.w3.org/2000/svg" xmlns:xlink="http://www.w3.org/1999/xlink">
    <title>002-covid</title>
    <g id="002-covid" stroke="none" stroke-width="1" fill="none" fill-rule="evenodd" transform="translate(0.000000, 0.000000)">
        <g id="protection" transform="translate(10.000000, 2.000000)" fill="#000000" fill-rule="nonzero">
            <g id="XMLID_1265_">
                <path d="M40.9008766,96.0000038 C40.7726266,96.0000038 40.6443766,95.9868788 40.5181891,95.9606288 L40.4791891,95.9523788 C29.0754387,93.5780662 18.7470007,87.293441 11.3973755,78.2559406 C4.04756266,69.2184403 -5.32907073e-15,57.8261273 -5.32907073e-15,46.1773143 L-5.32907073e-15,39.0000015 C-5.32907073e-15,37.964439 0.839437533,37.1250015 1.87500007,37.1250015 C2.91056262,37.1250015 3.75000015,37.964439 3.75000015,39.0000015 L3.75000015,46.1773143 C3.75000015,68.2507527 19.3530008,87.5523785 40.8999391,92.2083787 C62.4213775,87.5343785 78,68.2432527 78,46.1880018 L78,14.2642506 L40.8750016,3.82275015 L3.75000015,14.2642506 L3.75000015,22.1250009 C3.75000015,23.1605634 2.91056262,24.000001 1.87500007,24.000001 C0.839437533,24.000001 -5.32907073e-15,23.1605634 -5.32907073e-15,22.1250009 L-5.32907073e-15,12.8437505 C-5.32907073e-15,12.0037505 0.558562522,11.2661254 1.36725005,11.0388754 L40.3672516,0.0701250028 C40.6993141,-0.0232500009 41.0506891,-0.0232500009 41.3825641,0.0701250028 L80.3825657,11.0388754 C81.1914407,11.2661254 81.7500032,12.0037505 81.7500032,12.8437505 L81.7500032,46.1880018 C81.7500032,57.8343773 77.7039406,69.2250028 70.3567528,78.2615656 C63.0097525,87.2981285 52.6846896,93.5838787 41.2833766,95.9606288 C41.1573766,95.9868788 41.0291266,96.0000038 40.9008766,96.0000038 Z" id="XMLID_214_"></path>
            </g>
            <g id="XMLID_1294_" transform="translate(9.000000, 9.187500)">
                <path d="M31.8958138,77.5745656 C31.7388763,77.5745656 31.5819388,77.5548781 31.4285637,77.5155031 C22.5468759,75.230253 14.5254381,69.9465028 8.84156285,62.6377525 C3.14006262,55.3059397 0,46.1973768 0,36.989814 L0,10.4741254 C0,9.63412538 0.558750022,8.89650035 1.36743755,8.66925034 L31.3674387,0.231750009 C31.6995013,0.138375005 32.0508763,0.138375005 32.3827513,0.231750009 L62.3827525,8.66925034 C63.1916275,8.89668785 63.75019,9.63412538 63.75019,10.4741254 L63.75019,37.0005015 C63.75019,46.1994393 60.6146274,55.3016272 54.9213772,62.63044 C49.246127,69.9358153 41.2357516,75.2218155 32.3653138,77.5147531 C32.2111888,77.5546906 32.0535013,77.5745656 31.8958138,77.5745656 Z M3.75000015,11.8946255 L3.75000015,36.989814 C3.75000015,54.2165647 15.2981256,69.2671903 31.8946888,73.7600654 C48.4683769,69.2535028 60.0000024,54.2070022 60.0000024,37.0005015 L60.0000024,11.8946255 L31.8750013,3.98456266 L3.75000015,11.8946255 Z" id="XMLID_215_"></path>
            </g>
            <g id="XMLID_1321_" transform="translate(28.500001, 32.812501)">
                <path d="M16.5,24.924376 L8.25000033,24.924376 C7.21443779,24.924376 6.37500025,24.0849385 6.37500025,23.0493759 L6.37500025,18.5493757 L1.87500007,18.5493757 C0.839437533,18.5493757 0,17.7099382 0,16.674375 L0,8.42437533 C0,7.38881279 0.839437533,6.54937526 1.87500007,6.54937526 L6.37500025,6.54937526 L6.37500025,2.04937508 C6.37500025,1.01381254 7.21443779,0.174375007 8.25000033,0.174375007 L16.5,0.174375007 C17.5353757,0.174375007 18.3750007,1.01381254 18.3750007,2.04937508 L18.3750007,6.54937526 L22.8750009,6.54937526 C23.910376,6.54937526 24.750001,7.38881279 24.750001,8.42437533 L24.750001,16.674375 C24.750001,17.7099382 23.910376,18.5493757 22.8750009,18.5493757 L18.3750007,18.5493757 L18.3750007,23.0493759 C18.3750007,24.0849385 17.5353757,24.924376 16.5,24.924376 Z M10.1250004,21.1743758 L14.6250006,21.1743758 L14.6250006,16.6743757 C14.6250006,15.6388131 15.4646256,14.7993756 16.5000007,14.7993756 L21.0000008,14.7993756 L21.0000008,10.2993754 L16.5000007,10.2993754 C15.4646256,10.2993754 14.6250006,9.45993788 14.6250006,8.42437516 L14.6250006,3.92437516 L10.1250004,3.92437516 L10.1250004,8.42437516 C10.1250004,9.45993788 9.28556287,10.2993754 8.25000015,10.2993754 L3.75000015,10.2993754 L3.75000015,14.7993756 L8.25000015,14.7993756 C9.28556287,14.7993756 10.1250004,15.6388131 10.1250004,16.6743757 L10.1250004,21.1743758 Z" id="XMLID_211_"></path>
            </g>
            <g id="XMLID_1550_" transform="translate(0.000000, 28.687501)">
                <path d="M1.87500007,3.75000015 C1.38187505,3.75000015 0.898125036,3.54937514 0.549375022,3.20062513 C0.200625008,2.85187511 0,2.36812509 0,1.87500007 C0,1.38187505 0.200625008,0.898125036 0.549375022,0.549375022 C0.898125036,0.200625008 1.38187505,0 1.87500007,0 C2.36812509,0 2.85187511,0.200625008 3.20062513,0.549375022 C3.54937514,0.898125036 3.75000015,1.38187505 3.75000015,1.87500007 C3.75000015,2.36812509 3.54937514,2.85187511 3.20062513,3.20062513 C2.85187511,3.54937514 2.36812509,3.75000015 1.87500007,3.75000015 Z" id="XMLID_210_"></path>
            </g>
            <g id="XMLID_2814_" transform="translate(18.375001, 22.875001)">
                <path d="M22.5000009,44.9244393 C10.1280004,44.9244393 0.0624375025,34.8588764 0.0624375025,22.4868759 C0.0624375025,10.1148754 10.1280004,0.049312502 22.5000009,0.049312502 C34.8720014,0.049312502 44.9375643,10.1146879 44.9375643,22.4868759 C44.9375643,34.8590639 34.8720014,44.9244393 22.5000009,44.9244393 Z M22.5000009,3.79931265 C12.1957505,3.79931265 3.81243765,12.182438 3.81243765,22.4868759 C3.81243765,32.7911263 12.195563,41.1744391 22.5000009,41.1744391 C32.8044388,41.1744391 41.1875641,32.7911263 41.1875641,22.4868759 C41.1875641,12.182438 32.8044388,3.79931265 22.5000009,3.79931265 Z" id="XMLID_207_"></path>
            </g>
        </g>
    </g>
</svg>