<?xml version="1.0" encoding="UTF-8"?>
<svg width="100px" height="100px" viewBox="0 0 100 100" version="1.1" xmlns="http://www.w3.org/2000/svg" xmlns:xlink="http://www.w3.org/1999/xlink">
    <title>003-checked</title>
    <g id="003-checked" stroke="none" stroke-width="1" fill="none" fill-rule="evenodd">
        <g transform="translate(0.000000, 5.718750)" fill="#FF8B00" fill-rule="nonzero">
            <path d="M87.8351562,40.9847656 C87.7291016,39.5130859 86.4519531,38.4083984 84.978125,38.5119141 C83.50625,38.6179688 82.3992188,39.8970703 82.5050781,41.3689453 C82.5708984,42.278125 82.6039063,43.2109375 82.6039063,44.140625 C82.6039063,65.4416016 65.2746094,82.7708984 43.9738281,82.7708984 C22.6730469,82.7708984 5.34375,65.4414062 5.34375,44.140625 C5.34375,22.8398438 22.6730469,5.51054688 43.9740234,5.51054688 C52.4097656,5.51054688 60.4212891,8.18007813 67.1419922,13.2302734 C68.321875,14.1166016 69.9964844,13.8789063 70.8830078,12.6994141 C71.7697266,11.5197266 71.5320312,9.84472656 70.3523438,8.95839844 C62.6982422,3.20703125 53.5767578,0.166992188 43.9738281,0.166992188 C19.7267578,0.166992188 0,19.8935547 0,44.140625 C0,68.3876953 19.7267578,88.1142578 43.9740234,88.1142578 C68.2212891,88.1142578 87.9476562,68.3878906 87.9476562,44.140625 C87.9476562,43.0832031 87.9095703,42.0214844 87.8351562,40.9847656 Z" id="Path"></path>
            <path d="M96.9521484,6.20507812 C92.8880859,2.14121094 86.2751953,2.14121094 82.2111328,6.20507812 L43.7130859,44.7027344 L30.0658203,31.0552734 C26.0017578,26.9914063 19.3888672,26.9914063 15.3248047,31.0552734 C11.2607422,35.1193359 11.2607422,41.7322266 15.3248047,45.7962891 L38.8289062,69.3003906 C40.1755859,70.6470703 41.9443359,71.3203125 43.7130859,71.3203125 C45.4820312,71.3203125 47.2507812,70.6470703 48.5974609,69.3003906 L96.9521484,20.9457031 C101.01582,16.8818359 101.01582,10.2693359 96.9521484,6.20507812 Z M93.1736328,17.1673828 L44.81875,65.5224609 C44.209375,66.1318359 43.2171875,66.1318359 42.6078125,65.5224609 L19.1037109,42.0181641 C17.1230469,40.0375 17.1230469,36.8150391 19.1037109,34.834375 C20.0939453,33.84375 21.3945312,33.3488281 22.6955078,33.3488281 C23.9964844,33.3488281 25.2972656,33.8439453 26.2873047,34.834375 L40.3267578,48.8738281 C41.2314453,49.7783203 42.434375,50.2763672 43.7132812,50.2763672 C44.9927734,50.2763672 46.1957031,49.778125 47.1001953,48.8736328 L85.9898438,9.98359375 C87.9699219,8.00292969 91.1929687,8.00292969 93.1736328,9.98359375 C95.1541016,11.9642578 95.1541016,15.1867187 93.1736328,17.1673828 Z" id="Shape"></path>
        </g>
    </g>
</svg>