<?xml version="1.0" encoding="UTF-8"?>
<svg width="100px" height="100px" viewBox="0 0 100 100" version="1.1" xmlns="http://www.w3.org/2000/svg" xmlns:xlink="http://www.w3.org/1999/xlink">
    <title>004-settings</title>
    <g id="004-settings" stroke="none" stroke-width="1" fill="none" fill-rule="evenodd">
        <g fill="#FF8B00" fill-rule="nonzero" id="Shape">
            <path d="M64.2273437,72.0181641 C63.1759766,71.3863281 62.096875,70.7511719 61.0177734,70.1285156 C61.2714844,67.9664063 61.2720703,65.7792969 61.0189453,63.6214844 C62.1021484,62.9964844 63.1806641,62.3617188 64.2269531,61.7326172 C65.9886719,60.6740234 66.7230469,58.4404297 65.9347656,56.5367188 C65.9347656,56.5367188 65.9347656,56.5367188 65.9345703,56.5365234 L63.6355469,50.9861328 C62.8470703,49.0830078 60.7494141,48.0222656 58.7541016,48.5193359 C57.5683594,48.8144531 56.3568359,49.1283203 55.1496094,49.4521484 C53.8017578,47.7466797 52.2550781,46.2003906 50.5474609,44.8517578 C50.8712891,43.6443359 51.1853516,42.4322266 51.4806641,41.2460938 C51.9777344,39.2517578 50.9171875,37.1533203 49.0140625,36.3648438 L43.4636719,34.0658203 C41.5605469,33.2771484 39.3263672,34.0109375 38.2673828,35.7730469 C37.6367187,36.8226563 37.0013672,37.9017578 36.3779297,38.9826172 C34.2164062,38.7289063 32.0296875,38.7283203 29.8708984,38.98125 C29.2455078,37.8970703 28.6105469,36.8183594 27.9822266,35.7730469 C26.9228516,34.0113281 24.6892578,33.2773438 22.7859375,34.0658203 L17.2355469,36.3648438 C15.3328125,37.153125 14.271875,39.2517578 14.7689453,41.2460938 C15.0648437,42.4345703 15.3785156,43.6462891 15.7017578,44.8505859 C13.9964844,46.1980469 12.45,47.7451172 11.1015625,49.4527344 C9.89140625,49.1279297 8.67929687,48.8142578 7.49550781,48.5193359 C5.50058594,48.021875 3.40253906,49.0833984 2.6140625,50.9863281 L0.315429687,56.5365234 C-0.47265625,58.4398438 0.261523437,60.6736328 2.02285156,61.7322266 C3.07265625,62.3630859 4.15175781,62.9982422 5.23242187,63.621875 C4.97890625,65.7832031 4.97832031,67.9699219 5.23125,70.1289063 C4.14960937,70.7529297 3.07109375,71.3878906 2.02246094,72.0179688 C0.261132812,73.0767578 -0.473046875,75.3103516 0.315234375,77.2138672 L2.61445312,82.7642578 C3.40273437,84.6671875 5.50019531,85.7283203 7.49589844,85.2310547 C8.68027344,84.9361328 9.89199219,84.6224609 11.1,84.2982422 C12.4478516,86.0035156 13.9945312,87.5496094 15.7021484,88.8984375 C15.3779297,90.1072266 15.0640625,91.3193359 14.7689453,92.5041016 C14.271875,94.4984375 15.3324219,96.5970703 17.2355469,97.3853516 L22.7861328,99.6845703 C23.3017578,99.8980469 23.8414062,100.000321 24.3753906,100.000321 C25.8132812,100.000321 27.2101562,99.2619141 27.9830078,97.9775391 C28.6089844,96.9359375 29.2439453,95.8572266 29.8724609,94.7681641 C32.0335937,95.0214844 34.2208984,95.021875 36.3794922,94.7693359 C37.0003906,95.8458984 37.6353516,96.9244141 38.2681641,97.9777344 C39.3271484,99.7394531 41.5607422,100.473242 43.4644531,99.6849609 L49.0148437,97.3859375 C50.9175781,96.5976563 51.9785156,94.4990234 51.4814453,92.5046875 C51.1878906,91.3263672 50.8742187,90.1146484 50.5486328,88.9001953 C52.2535156,87.5527344 53.8001953,86.0058594 55.1490234,84.2982422 C56.3556641,84.621875 57.5677734,84.9355469 58.7544922,85.23125 C60.7488281,85.7287109 62.8474609,84.6679688 63.6359375,82.7644531 L65.9349609,77.2138672 C66.7228516,75.3105469 65.9886719,73.0767578 64.2273437,72.0181641 Z M59.8562733,80.9066455 C58.6995233,80.616916 57.5203796,80.3105399 56.3479738,79.9946515 C54.6880565,79.5481669 52.936384,80.1317875 51.8852615,81.4823392 C50.6771842,83.0340368 49.2790566,84.4323482 47.7299193,85.6386296 C46.3809393,86.6893449 45.7981054,88.440405 46.2449909,90.0993144 C46.5626661,91.2792388 46.8688472,92.4575777 47.156796,93.6061907 L41.9800577,95.7502286 C41.3643267,94.7228977 40.747803,93.6731733 40.1451515,92.6260251 C39.2876465,91.1369503 37.6372416,90.3117563 35.9406618,90.5218201 C33.9923993,90.7637898 32.0148068,90.7635916 30.0639679,90.5208292 C28.362632,90.3095764 26.7136143,91.1347704 25.8563074,92.6242416 C25.2463235,93.6832801 24.6296016,94.7335991 24.0206085,95.7502286 L18.8438702,93.6057943 C19.1334045,92.451038 19.4397837,91.2721045 19.7560717,90.0979272 C20.2029572,88.4382251 19.6189343,86.6863723 18.2683688,85.6350625 C16.7166553,84.4271957 15.3185277,83.0292806 14.1120357,81.4803574 C13.061706,80.1309948 11.310628,79.5483651 9.65110703,79.9950479 C8.47731402,80.3111344 7.2987648,80.6175105 6.14439299,80.9068436 L3.99993677,75.7303566 C5.02272011,75.1172081 6.07285166,74.5006907 7.12437044,73.895271 C8.61365871,73.0377747 9.43965386,71.3877831 9.22879521,69.6910226 C8.98642668,67.7425818 8.9870212,65.7652078 9.22938974,63.8141907 C9.44104109,62.1158448 8.61564047,60.4640696 7.12555949,59.6063752 C6.07443706,59.0011537 5.02410734,58.3844381 3.99993677,57.7702988 L6.14419481,52.5938117 C7.29757575,52.8829467 8.47632315,53.1893227 9.65229609,53.5058056 C11.3114207,53.9528848 13.0632914,53.3686696 14.1152065,52.018118 C15.3230857,50.4664204 16.7212133,49.0681089 18.2699542,47.8620257 C19.6191325,46.8115086 20.2019664,45.0602503 19.7550808,43.4007464 C19.4399819,42.2307307 19.1336027,41.0523917 18.8432757,39.8942665 L24.020014,37.7502286 C24.631187,38.7700288 25.2479089,39.8199514 25.8549202,40.874432 C26.7126234,42.363705 28.3644155,43.1908808 30.0594099,42.9786371 C32.0068797,42.736271 33.9840759,42.736271 35.9366983,42.9796279 C37.6360525,43.1912771 39.2868538,42.3648941 40.1441606,40.8756211 C40.7491902,39.8245094 41.3661103,38.7741905 41.9796614,37.7502286 L47.1563997,39.8942665 C46.8666672,41.0502118 46.560288,42.2291453 46.2441982,43.4025299 C45.7973127,45.0620339 46.3813356,46.8138867 47.7319011,47.8651965 C49.2834165,49.0730633 50.6817422,50.4709784 51.8882342,52.0199016 C52.9385639,53.3688678 54.6890474,53.9516957 56.349361,53.5050129 C57.5223613,53.1891245 58.7007124,52.8827485 59.8558769,52.5932172 L61.9999368,57.7697042 C60.9787388,58.3818618 59.9288055,58.9983792 58.8757013,59.6047898 C57.386413,60.4622861 56.5602197,62.1124759 56.7712765,63.8092364 C57.013645,65.7566863 57.0132487,67.7342585 56.7702856,69.6864646 C56.5590306,71.3850087 57.3848276,73.0363875 58.8743141,73.8938838 C59.9238511,74.4981144 60.9741808,75.11483 61.9999368,75.7295639 L59.8562733,80.9066455 Z"></path>
            <path d="M47.2191406,61.0373047 C47.2191406,61.0373047 47.2191406,61.0373047 47.2189453,61.0371094 C44.0001953,53.2658203 35.0595703,49.5621094 27.2871094,52.7810547 C19.5160156,56.0001953 15.8121094,64.9416016 19.03125,72.7128906 C20.5904297,76.4777344 23.5228516,79.4095703 27.2873047,80.9691406 C29.1695312,81.7486328 31.1472656,82.1384766 33.125,82.1384766 C35.1027344,82.1384766 37.0804688,81.7486328 38.9630859,80.9691406 C46.7341797,77.75 50.4378906,68.8087891 47.2191406,61.0373047 Z M37.25,76.8335937 C34.5902344,77.9353516 31.6607422,77.9351562 29.0001953,76.8335937 C26.3404297,75.7318359 24.26875,73.6599609 23.1667969,71 C20.8919922,65.5089844 23.5091797,59.1910156 29.0003906,56.9166016 C30.3451172,56.3595703 31.7388672,56.0958984 33.1111328,56.0958984 C37.3429687,56.0958984 41.3660156,58.6037109 43.0837891,62.7501953 C45.3582031,68.2412109 42.7410156,74.5589844 37.25,76.8335937 Z"></path>
            <path d="M96.9830078,19.7140625 C96.2103516,19.5984375 95.4167969,19.4861328 94.6175781,19.3794922 C94.2148438,18.0402344 93.6769531,16.7417969 93.0132813,15.5085938 C93.5023438,14.8689453 93.984375,14.228125 94.4501953,13.5986328 C95.484375,12.2 95.3347656,10.2164063 94.1025391,8.98476562 L91.0150391,5.89765625 C89.7828125,4.66523438 87.7992188,4.51582031 86.4009766,5.55039063 C85.7693359,6.01777344 85.1287109,6.49960938 84.4910156,6.98691406 C83.2580078,6.32324219 81.9597656,5.78535156 80.6201172,5.38242188 C80.5132813,4.58320313 80.4013672,3.78964844 80.2857422,3.0171875 C80.0285156,1.29726562 78.5203125,0 76.7777344,0 L72.4113281,0 C70.66875,0 69.1605469,1.29726562 68.9033203,3.01699219 C68.7878906,3.7890625 68.6757812,4.5828125 68.5689453,5.38222656 C67.2292969,5.78515625 65.9308594,6.32304687 64.6980469,6.98671875 C64.0607422,6.49921875 63.4197266,6.0171875 62.7882812,5.55019531 C61.3896484,4.515625 59.4060547,4.66503906 58.1742187,5.89726562 L55.0871094,8.98417969 C53.8546875,10.2162109 53.7048828,12.2 54.7394531,13.5988281 C55.2048828,14.228125 55.6869141,14.8691406 56.1757812,15.5085937 C55.5125,16.7416016 54.9744141,18.0398437 54.5714844,19.3794922 C53.7724609,19.4863281 52.9787109,19.5984375 52.20625,19.7140625 C50.4861328,19.9714844 49.1888672,21.4794922 49.1888672,23.2222656 L49.1888672,27.5884766 C49.1888672,29.3310547 50.4857422,30.8392578 52.2058594,31.0966797 C52.9785156,31.2123047 53.7720703,31.3246094 54.5712891,31.43125 C54.9742187,32.7707031 55.5121094,34.0689453 56.1755859,35.3021484 C55.6871094,35.9412109 55.2050781,36.5818359 54.7386719,37.2121094 C53.7046875,38.6103516 53.8541016,40.5943359 55.0863281,41.8257812 L58.1738281,44.9132812 C59.4058594,46.1457031 61.3894531,46.2949219 62.7878906,45.2605469 C63.4195312,44.7935547 64.0601562,44.3113281 64.6976562,43.8242187 C65.9310547,44.4878906 67.2294922,45.0257812 68.56875,45.4285156 C68.6751953,46.2275391 68.7875,47.0212891 68.903125,47.7939453 C69.1605469,49.5138672 70.66875,50.8111328 72.4113281,50.8111328 L76.7777344,50.8111328 C78.5203125,50.8111328 80.0285156,49.5142578 80.2857422,47.79375 C80.4011719,47.0210937 80.5132812,46.2275391 80.6201172,45.4283203 C81.9595703,45.0257812 83.2578125,44.4875 84.4910156,43.8238281 C85.1283203,44.3113281 85.7693359,44.7933594 86.4007812,45.2605469 C87.7990234,46.2951172 89.7830078,46.1457031 91.0148437,44.9134766 L94.1023437,41.8263672 C95.3345703,40.5943359 95.4841797,38.6105469 94.4496094,37.2119141 C93.9835937,36.5818359 93.5015625,35.9408203 93.0132812,35.3023437 C93.6765625,34.0693359 94.2146484,32.7712891 94.6175781,31.4314453 C95.4166016,31.3246094 96.2103516,31.2125 96.9828125,31.096875 C98.7029297,30.8394531 100.000195,29.3314453 100.000195,27.5886719 L100.000195,23.2224609 C100.000195,21.4796875 98.7029297,19.9714844 96.9830078,19.7140625 Z M96.1888672,27.1010258 C95.4758101,27.2044523 94.7482617,27.304901 94.0183311,27.3999898 C92.5745494,27.5883809 91.3926057,28.6131168 91.0078884,30.0102674 C90.6392506,31.3480619 90.1042593,32.6390069 89.4180014,33.8471709 C88.7011727,35.1083386 88.8117441,36.6690658 89.6996907,37.8238292 C90.1473365,38.4058761 90.5914091,38.9916947 91.0235709,39.5705653 L88.7597339,41.8346321 C88.1790847,41.4012733 87.5932742,40.9573931 87.0124265,40.5107337 C85.8582746,39.6223778 84.2971719,39.5125988 83.0358233,40.2286434 C81.8274774,40.9151093 80.5365504,41.450108 79.1995684,41.8187509 C77.8016431,42.2038706 76.7769213,43.3858306 76.5891285,44.8292353 C76.494041,45.559176 76.3937921,46.2869331 76.2901686,47 L73.0881613,47 C72.9847363,46.2869331 72.8844874,45.5593745 72.7892014,44.8300294 C72.600813,43.3860291 71.5762898,42.2040691 70.1787615,41.8189494 C68.8413825,41.4505051 67.5508525,40.9155064 66.3421096,40.2290405 C65.080761,39.5124003 63.5196583,39.6225763 62.3657049,40.5107337 C61.7846587,40.9575916 61.1992452,41.4012733 60.618199,41.8346321 L58.354362,39.5705653 C58.7865238,38.9910991 59.2303979,38.4056775 59.6786392,37.8230352 C60.5659902,36.6686687 60.6765617,35.1079415 59.9599314,33.8467739 C59.2736736,32.6386098 58.7386823,31.3474664 58.3700445,30.0100689 C57.9851287,28.6125212 56.8033835,27.5879838 55.3596018,27.3995928 C54.6296712,27.3043055 53.9019242,27.2042538 53.1888672,27.1004303 L53.1888672,23.8987757 C53.9019242,23.7953492 54.6294727,23.6949005 55.3594033,23.5998116 C56.803185,23.4114206 57.9851287,22.3866847 58.369846,20.9895341 C58.7384838,19.6519381 59.2732766,18.3609931 59.9597329,17.1526306 C60.6765617,15.8914629 60.5659902,14.3305372 59.6784407,13.1761708 C59.2300008,12.5933299 58.7861268,12.0077098 58.354362,11.4292362 L60.618199,9.16516934 C61.1988482,9.59852822 61.7844602,10.0424084 62.3651094,10.4888693 C63.5188643,11.3772252 65.0797684,11.4879967 66.3421096,10.771158 C67.5500584,10.0848907 68.841184,9.54989197 70.1783645,9.18105056 C71.5762898,8.7959309 72.6010115,7.61397086 72.7888044,6.17056618 C72.8840904,5.44062546 72.9845378,4.71306692 73.0879628,4 L76.2899701,4 C76.3933951,4.71286841 76.493644,5.44042695 76.5887315,6.16997064 C76.7771199,7.61397086 77.8018416,8.7959309 79.1991714,9.18085205 C80.5367489,9.54949494 81.8278744,10.0846922 83.0360218,10.7709595 C84.297569,11.4877982 85.8584731,11.3764312 87.012228,10.4890678 C87.5932742,10.0424084 88.1786876,9.59852822 88.7597339,9.16516934 L91.0235709,11.4292362 C90.5918061,12.0079083 90.1479321,12.5937269 89.6994922,13.1767663 C88.8119427,14.3309342 88.7015697,15.8916614 89.4178029,17.1528291 C90.1040608,18.3613902 90.6390521,19.6525336 91.0076899,20.9897326 C91.3926057,22.3872802 92.5743508,23.4118177 94.0181326,23.6002087 C94.7480632,23.695496 95.4758101,23.7957462 96.1888672,23.8993712 L96.1888672,27.1010258 Z"></path>
            <path d="M74.5945312,16.3427734 C69.5974609,16.3427734 65.5318359,20.4082031 65.5318359,25.4054687 C65.5318359,30.4029297 69.5972656,34.4683594 74.5945312,34.4683594 C79.5917969,34.4683594 83.6572266,30.4029297 83.6572266,25.4054688 C83.6572266,20.4082031 79.5917969,16.3427734 74.5945312,16.3427734 Z M74.5945312,30.4396484 C71.8189453,30.4396484 69.5603516,28.18125 69.5603516,25.4052734 C69.5603516,22.6292969 71.81875,20.3710937 74.5945312,20.3710937 C77.3703125,20.3710937 79.6285156,22.6294922 79.6287109,25.4052734 C79.6287109,28.18125 77.3703125,30.4396484 74.5945312,30.4396484 Z"></path>
        </g>
    </g>
</svg>