<?xml version="1.0" encoding="UTF-8"?>
<svg width="100px" height="100px" viewBox="0 0 100 100" version="1.1" xmlns="http://www.w3.org/2000/svg" xmlns:xlink="http://www.w3.org/1999/xlink">
    <title>005-paint-brush</title>
    <g id="005-paint-brush" stroke="none" stroke-width="1" fill="none" fill-rule="evenodd">
        <g fill="#FF8B00" fill-rule="nonzero">
            <path d="M98.6376953,1.47441406 C95.7689453,-1.39394531 90.0154297,0.242578125 80.5306641,6.62617188 C72.4732422,12.0492188 62.8083984,20.2626953 53.3166016,29.7544922 C39.2449219,43.8259766 28.5464844,57.6419922 24.984375,66.1720703 C24.3980469,65.9595703 23.7900391,65.7896484 23.1626953,65.665625 C19.4767578,64.9365234 15.4734375,65.86875 12.1787109,68.2214844 C7.45078125,71.5976562 6.19863281,76.4189453 6.01679687,77.2316406 C5.02148437,80.9488281 3.13652344,84.4955078 0.563476562,87.4912109 C-0.2640625,88.4546875 -0.16953125,89.903125 0.776367187,90.7511719 C4.08242187,93.7140625 8.31152344,95.2001953 12.7103516,95.2001953 C16.9498047,95.2001953 21.3470703,93.8195312 25.2253906,91.05 C27.0439453,89.7513672 28.4207031,88.3154297 28.6873047,88.03125 C31.9826172,84.4900391 33.3818359,79.846875 32.6876953,75.6044922 C41.0568359,72.6042969 55.6472656,61.5066406 70.3578125,46.7960937 C79.8496094,37.3042969 88.0632812,27.6392578 93.4861328,19.5820312 C99.8695312,10.096875 101.506445,4.34335938 98.6376953,1.47441406 Z M25.271875,84.8466797 C25.1464844,84.9804688 24.0033203,86.1849609 22.5121094,87.2494141 C17.0957031,91.1166016 10.4644531,91.5638672 5.64785156,88.5863281 C7.90351562,85.49375 9.57988281,82.0076172 10.5429687,78.3804688 L10.5429687,78.3802734 C10.5537109,78.3396484 10.5634766,78.2986328 10.5720703,78.2572266 C10.5800781,78.2203125 11.3910156,74.5214844 14.8921875,72.0214844 C17.1441406,70.4130859 19.8291016,69.7662109 22.2576172,70.2462891 C24.2605469,70.6419922 25.9443359,71.7853516 26.9988281,73.4650391 C29.0681641,76.7613281 28.340625,81.5492187 25.271875,84.8466797 Z M31.0970703,71.2232422 C31.0492188,71.1431641 30.3412109,69.7056641 29.0220703,68.6373047 C30.1585938,65.5988281 32.6052734,61.4919922 36.0154297,56.7761719 L43.3308594,64.0916016 C38.1845703,67.7960937 33.9675781,70.2109375 31.0970703,71.2232422 Z M47.1089844,61.2666016 L38.8470703,53.0046875 C40.2748047,51.1667969 41.8195313,49.2630859 43.4658203,47.3158203 L52.8029297,56.6529297 C50.8267578,58.321875 48.9236328,59.8619141 47.1089844,61.2666016 Z M88.8982422,18.0207031 C83.6392578,25.6214844 75.8820313,34.6681641 67.0560547,43.49375 C63.3503906,47.1994141 59.7578125,50.5703125 56.3443359,53.5902344 L46.5285156,43.7744141 C49.6417969,40.2525391 53.0363281,36.6380859 56.6185547,33.05625 C65.4443359,24.2302734 74.4910156,16.4732422 82.0916016,11.2136719 C91.4501953,4.73808594 94.6794922,4.72773438 95.2998047,4.8125 C95.3849609,5.43222656 95.3736328,8.66269531 88.8982422,18.0207031 Z" id="Shape"></path>
            <path d="M23.2921875,78.5388672 C22.1626953,77.9171875 20.7429688,78.3287109 20.1210938,79.4583984 C20.0582031,79.5726563 19.9822266,79.6794922 19.8949219,79.7759766 C19.7203125,79.9576172 19.1464844,80.5123047 18.5503906,80.9382813 C17.6460937,81.5837891 16.6703125,82.0464844 15.65,82.3134766 C14.4025391,82.6398438 13.6560547,83.915625 13.9824219,85.1630859 C14.2570313,86.2123047 15.203125,86.9072266 16.2392578,86.9072266 C16.4349609,86.9072266 16.6335938,86.8824219 16.8318359,86.8308594 C18.4039063,86.4195313 19.8951172,85.715625 21.2640625,84.7382813 C22.1427734,84.1107422 23.3091797,82.9619141 23.3171875,82.953125 C23.6642578,82.5767578 23.9654297,82.1583984 24.2123047,81.7097656 C24.8337891,80.5800781 24.421875,79.1603516 23.2921875,78.5388672 Z" id="Path"></path>
        </g>
    </g>
</svg>