<?xml version="1.0" encoding="UTF-8"?>
<svg width="100px" height="100px" viewBox="0 0 100 100" version="1.1" xmlns="http://www.w3.org/2000/svg" xmlns:xlink="http://www.w3.org/1999/xlink">
    <title>006-compass</title>
    <g id="006-compass" stroke="none" stroke-width="1" fill="none" fill-rule="evenodd">
        <g transform="translate(7.000000, 0.000000)" fill="#FF8B00" fill-rule="nonzero" id="Shape">
            <path d="M42.7732422,25.9560547 C25.5150391,25.9560547 11.4744141,39.9966797 11.4744141,57.2548828 C11.4744141,74.5130859 25.5150391,88.5537109 42.7732422,88.5537109 C60.0314453,88.5537109 74.0720703,74.5130859 74.0720703,57.2548828 C74.0720703,39.9966797 60.0314453,25.9560547 42.7732422,25.9560547 Z M44.8005859,84.4240234 L44.8005859,81.8117187 C44.8005859,80.6919922 43.8929688,79.784375 42.7732422,79.784375 C41.6535156,79.784375 40.7458984,80.6919922 40.7458984,81.8117187 L40.7458984,84.4240234 C27.3359375,83.4328125 16.5953125,72.6923828 15.6041016,59.2824219 L18.2164063,59.2824219 C19.3361328,59.2824219 20.24375,58.3746094 20.24375,57.2550781 C20.24375,56.1353516 19.3361328,55.2277344 18.2164063,55.2277344 L15.6041016,55.2277344 C16.5953125,41.8175781 27.3357422,31.0771484 40.7458984,30.0859375 L40.7458984,32.6982422 C40.7458984,33.8177734 41.6535156,34.7255859 42.7732422,34.7255859 C43.8929688,34.7255859 44.8005859,33.8177734 44.8005859,32.6982422 L44.8005859,30.0859375 C58.2105469,31.0771484 68.9511719,41.8175781 69.9423828,55.2277344 L67.3300781,55.2277344 C66.2103516,55.2277344 65.3027344,56.1353516 65.3027344,57.2550781 C65.3027344,58.3746094 66.2103516,59.2824219 67.3300781,59.2824219 L69.9423828,59.2824219 C68.9509766,72.6921875 58.2105469,83.4328125 44.8005859,84.4240234 Z"></path>
            <path d="M44.8005859,14.559375 L44.8005859,11.9255859 L48.0574219,11.9255859 C49.1771484,11.9255859 50.0847656,11.0179688 50.0847656,9.89824219 L50.0847656,2.02714844 C50.0847656,0.907421875 49.1771484,-0.0001953125 48.0574219,-0.0001953125 L37.4880859,-0.0001953125 C36.3683594,-0.0001953125 35.4607422,0.907421875 35.4607422,2.02714844 L35.4607422,9.89824219 C35.4607422,11.0179688 36.3683594,11.9255859 37.4880859,11.9255859 L40.7462891,11.9255859 L40.7462891,14.559375 C18.1142578,15.6214844 0.0283203125,34.3650391 0.0283203125,57.2548828 C0.0283203125,80.8246094 19.2035156,100 42.7734375,100 C66.3433594,100 85.5185547,80.8246094 85.5185547,57.2548828 C85.5185547,34.3650391 67.4324219,15.6214844 44.8005859,14.559375 Z M39.7726562,7.96279297 L39.7726562,3.96279297 L45.7726562,3.96279297 L45.7726562,7.96279297 L39.7726562,7.96279297 Z M42.7732422,95.7320313 C21.5568359,95.7320313 4.29609375,78.4712891 4.29609375,57.2548828 C4.29609375,36.0384766 21.5568359,18.7779297 42.7732422,18.7779297 C63.9896484,18.7779297 81.2503906,36.0386719 81.2503906,57.2550781 C81.2503906,78.4714844 63.9898437,95.7320313 42.7732422,95.7320313 Z"></path>
            <path d="M57.6972656,42.3316406 C57.0996094,41.7339844 56.1941406,41.5697266 55.4246094,41.9193359 L36.8757812,50.3505859 C36.8603516,50.3576172 36.8458984,50.3662109 36.8304687,50.3736328 C36.7996094,50.3884766 36.76875,50.4039063 36.7384766,50.4205078 C36.7111328,50.4353516 36.6849609,50.4515625 36.6583984,50.4679688 C36.63125,50.4845703 36.6039062,50.5007813 36.5773437,50.5189453 C36.5458984,50.5402344 36.5158203,50.5632813 36.4855469,50.5863281 C36.4654297,50.6017578 36.4447266,50.6162109 36.4251953,50.6324219 C36.3251953,50.7150391 36.2333984,50.8068359 36.1507812,50.9068359 C36.134375,50.9269531 36.1197266,50.9478516 36.1041016,50.9681641 C36.08125,50.9980469 36.0583984,51.0277344 36.0375,51.0587891 C36.0191406,51.0857422 36.0025391,51.1134766 35.9855469,51.1412109 C35.9697266,51.1669922 35.9539062,51.1927734 35.9392578,51.2195313 C35.9222656,51.2503906 35.9068359,51.2816406 35.8914062,51.3132813 C35.8841797,51.328125 35.8757812,51.3423828 35.8689453,51.3574219 L27.4376953,69.90625 C27.0878906,70.6755859 27.2523437,71.58125 27.8498047,72.1785156 C28.2382812,72.5671875 28.7570312,72.7724609 29.2837891,72.7724609 C29.5671875,72.7724609 29.8529297,72.7128906 30.1222656,72.590625 L48.6710937,64.159375 C48.6865234,64.1523438 48.7007812,64.14375 48.7158203,64.1365234 C48.746875,64.1212891 48.7779297,64.1060547 48.8083984,64.0894531 C48.8355469,64.0746094 48.8615234,64.0585938 48.8876953,64.0425781 C48.9150391,64.0259766 48.9425781,64.0095703 48.9691406,63.9912109 C49.0001953,63.9701172 49.0302734,63.9472656 49.0599609,63.9244141 C49.0804687,63.9087891 49.1013672,63.8941406 49.1212891,63.8777344 C49.2210937,63.7953125 49.3128906,63.7035156 49.3953125,63.6037109 C49.4123047,63.5832031 49.4275391,63.5615234 49.4435547,63.540625 C49.4658203,63.5113281 49.4880859,63.4824219 49.5087891,63.4519531 C49.5273438,63.4246094 49.5441406,63.3966797 49.5613281,63.36875 C49.5769531,63.3431641 49.5927734,63.3177734 49.6072266,63.2912109 C49.6242187,63.2603516 49.6398437,63.2287109 49.6552734,63.1970703 C49.6625,63.1824219 49.6708984,63.1681641 49.6777344,63.153125 L58.1089844,44.6042969 C58.4591797,43.8345703 58.2949219,42.9291016 57.6972656,42.3316406 Z M33.365625,66.6625 L38.3494141,55.6982422 L44.3298828,61.6787109 L33.365625,66.6625 Z M47.1970703,58.8119141 L41.2166016,52.8314453 L52.1808594,47.8476563 L47.1970703,58.8119141 Z"></path>
        </g>
    </g>
</svg>