<?xml version="1.0" encoding="utf-8"?>
<!-- Generator: Adobe Illustrator 23.0.2, SVG Export Plug-In . SVG Version: 6.00 Build 0)  -->
<svg version="1.1" id="Capa_1" xmlns="http://www.w3.org/2000/svg" xmlns:xlink="http://www.w3.org/1999/xlink" x="0px" y="0px"
	 viewBox="0 0 512 512" style="enable-background:new 0 0 512 512;" xml:space="preserve">
<style type="text/css">
	.st0{fill:#D20000;}
</style>
<g>
	<g>
		<path class="st0" d="M390.7,436.6l-21.5-36.8h7c2.5,0,4.9-1.3,6.3-3.4c1.4-2.1,1.6-4.8,0.6-7.1l-43.6-101.8h20.7
			c2.6,0,5-1.3,6.4-3.5c1.4-2.2,1.5-4.9,0.4-7.2l-34.9-72.5c2.3-3.6,3.6-7.9,3.6-12.4c0-12.1-9.1-22-20.8-23.4L283.3,103
			c0.4,0.1,0.9,0.1,1.3,0.1c1.6,0,3.1-0.5,4.4-1.4c2.3-1.7,3.5-4.5,3-7.3l-4.8-28l20.4-19.8c2-2,2.8-5,1.9-7.7
			c-0.9-2.7-3.2-4.7-6.1-5.1l-28.1-4.1L262.7,4.2C261.5,1.6,258.9,0,256,0c-2.9,0-5.5,1.6-6.7,4.2l-12.6,25.5l-28.1,4.1
			c-2.8,0.4-5.2,2.4-6.1,5.1s-0.1,5.7,1.9,7.7l20.4,19.8l-4.8,28c-0.5,2.8,0.7,5.7,3,7.3c1.7,1.2,3.8,1.7,5.7,1.3l-12.8,26.6
			c-2.5-0.9-5.2-1.4-8-1.4c-13,0-23.5,10.6-23.5,23.5c0,8.5,4.5,15.9,11.2,20l-50.5,105c-1.1,2.3-1,5.1,0.4,7.2s3.8,3.5,6.4,3.5
			h20.7l-4.5,10.4c-9.1,3.2-15.7,12-15.7,22.2c0,3.4,0.7,6.7,2.1,9.6l-25.5,59.5c-1,2.3-0.8,5,0.6,7.1c1.4,2.1,3.7,3.4,6.3,3.4h7
			l-21.5,36.8c-1.4,2.3-1.4,5.2,0,7.5c1.3,2.3,3.8,3.8,6.5,3.8h96.7V497h-8.5c-4.1,0-7.5,3.4-7.5,7.5s3.4,7.5,7.5,7.5h80.2
			c4.1,0,7.5-3.4,7.5-7.5s-3.4-7.5-7.5-7.5h-8.5v-49.1h96.7c2.7,0,5.2-1.4,6.5-3.8C392.1,441.8,392.1,438.9,390.7,436.6z
			 M312.1,183.3c4.7,0,8.5,3.8,8.5,8.5c0,4.7-3.8,8.5-8.5,8.5s-8.5-3.8-8.5-8.5S307.4,183.3,312.1,183.3z M225.8,46.4l17-2.5
			c2.4-0.4,4.6-1.9,5.6-4.1l7.6-15.4l7.6,15.4c1.1,2.2,3.2,3.7,5.6,4.1l17,2.5l-12.3,12c-1.8,1.7-2.6,4.2-2.2,6.6l2.9,16.9l-15.2-8
			c-1.1-0.6-2.3-0.9-3.5-0.9s-2.4,0.3-3.5,0.9l-15.2,8l2.9-16.9c0.4-2.4-0.4-4.9-2.2-6.6L225.8,46.4z M207.9,143.3
			c4.7,0,8.5,3.8,8.5,8.5s-3.8,8.5-8.5,8.5s-8.5-3.8-8.5-8.5S203.2,143.3,207.9,143.3z M175.8,311.6c4.7,0,8.5,3.8,8.5,8.5
			s-3.8,8.5-8.5,8.5s-8.5-3.8-8.5-8.5C167.3,315.4,171.1,311.6,175.8,311.6z M272.5,497h-33.1v-49.1h33.1V497z M140.8,432.9
			l19.3-33.1h17.5c3.1,9.3,11.9,16,22.3,16s19.2-6.7,22.3-16H256c4.1,0,7.5-3.4,7.5-7.5s-3.4-7.5-7.5-7.5h-33.8
			c-3.1-9.3-11.9-16-22.3-16s-19.2,6.7-22.3,16h-30.5l18.6-43.4c3.1,1.5,6.5,2.3,10.1,2.3c13,0,23.5-10.6,23.5-23.5
			c0-10-6.3-18.6-15.1-22l4.5-10.6H240c4.1,0,7.5-3.4,7.5-7.5s-3.4-7.5-7.5-7.5h-76.2l46.9-97.4c11.7-1.4,20.8-11.3,20.8-23.4
			c0-4.6-1.3-8.8-3.6-12.4l22.9-47.5l5.3-2.8l5.3,2.8l38.5,80c-6.7,4.1-11.2,11.6-11.2,20c0,13,10.6,23.5,23.5,23.5
			c2.8,0,5.5-0.5,8-1.4l28.2,58.5h-28.1c-4.1,0-7.5,3.4-7.5,7.5s3.4,7.5,7.5,7.5h3.1l41.7,97.2h-28.7c-4.1,0-7.5,3.4-7.5,7.5
			s3.4,7.5,7.5,7.5h15.7l19.3,33.1L140.8,432.9L140.8,432.9z M191.4,392.3c0-4.7,3.8-8.5,8.5-8.5s8.5,3.8,8.5,8.5s-3.8,8.5-8.5,8.5
			S191.4,397,191.4,392.3z"/>
	</g>
</g>
<g>
	<g>
		<path class="st0" d="M288.1,272.5h-16c-4.1,0-7.5,3.4-7.5,7.5s3.4,7.5,7.5,7.5h16c4.1,0,7.5-3.4,7.5-7.5S292.2,272.5,288.1,272.5z
			"/>
	</g>
</g>
<g>
	<g>
		<path class="st0" d="M304.1,384.8h-16c-4.1,0-7.5,3.4-7.5,7.5s3.4,7.5,7.5,7.5h16c4.1,0,7.5-3.4,7.5-7.5S308.2,384.8,304.1,384.8z
			"/>
	</g>
</g>
<g>
	<g>
		<path class="st0" d="M232,200.4c-13,0-23.5,10.6-23.5,23.5s10.6,23.5,23.5,23.5c13,0,23.5-10.6,23.5-23.5S244.9,200.4,232,200.4z
			 M232,232.5c-4.7,0-8.5-3.8-8.5-8.5s3.8-8.5,8.5-8.5s8.5,3.8,8.5,8.5S236.7,232.5,232,232.5z"/>
	</g>
</g>
<g>
	<g>
		<path class="st0" d="M304.1,312.6c-13,0-23.5,10.6-23.5,23.5s10.6,23.5,23.5,23.5s23.5-10.6,23.5-23.5S317.1,312.6,304.1,312.6z
			 M304.1,344.7c-4.7,0-8.5-3.8-8.5-8.5s3.8-8.5,8.5-8.5s8.5,3.8,8.5,8.5S308.8,344.7,304.1,344.7z"/>
	</g>
</g>
</svg>
