<?xml version="1.0" encoding="UTF-8"?>
<svg width="40px" height="40px" viewBox="0 0 40 40" version="1.1" xmlns="http://www.w3.org/2000/svg" xmlns:xlink="http://www.w3.org/1999/xlink">
    <title>contact_sms</title>
    <g id="contact_sms" stroke="none" stroke-width="1" fill="none" fill-rule="evenodd">
        <g id="UX-UI-Icon_9" fill-rule="nonzero">
            <path d="M20,40 C8.97189091,40 0,31.0281091 0,20 C0,8.97189091 8.97189091,0 20,0 C31.0281091,0 40,8.97189091 40,20 C40,31.0281091 31.0281091,40 20,40 Z M20,1.78821818 C9.958,1.78821818 1.78821818,9.958 1.78821818,20 C1.78821818,30.042 9.958,38.2117818 20,38.2117818 C30.042,38.2117818 38.2117818,30.042 38.2117818,20 C38.2117818,9.958 30.042,1.78821818 20,1.78821818 Z" id="Shape" fill="#0B1153"></path>
            <path d="M19.8681091,30.4014909 C19.8617818,30.4014909 19.8552364,30.4014909 19.8487273,30.4014909 C19.5394909,30.3946182 19.2556364,30.2286545 19.0983636,29.9623636 L16.7554545,25.9981818 L11.9260727,25.9981818 C10.4221818,25.9981818 9.24421818,24.794 9.24421818,23.2567273 L9.24421818,14.4426182 C9.24421818,12.9001455 10.4221818,11.6918182 11.9260727,11.6918182 L28.0739273,11.6918182 C29.6061818,11.6918182 30.8526182,12.9258909 30.8526182,14.4426182 L30.8526182,23.2567273 C30.8526182,24.7684727 29.6061818,25.9981818 28.0739273,25.9981818 L23.2193091,25.9981818 L20.6174545,29.9952364 C20.4523273,30.2490182 20.1701455,30.4014909 19.8681091,30.4014909 Z M11.9260727,13.4800364 C11.4166545,13.4800364 11.0324727,13.8939636 11.0324727,14.4426182 L11.0324727,23.2567273 C11.0324727,23.8090545 11.4083273,24.2099636 11.9260727,24.2099636 L17.2655636,24.2099636 C17.5818182,24.2099636 17.8745091,24.3769455 18.0352727,24.6490909 L19.9048364,27.8121455 L21.9850909,24.6161818 C22.1500727,24.3627273 22.4320727,24.2099636 22.7344364,24.2099636 L28.0739273,24.2099636 C28.6107273,24.2099636 29.0644,23.7734909 29.0644,23.2567273 L29.0644,14.4426182 C29.0644,13.9208364 28.6107636,13.4800364 28.0739273,13.4800364 L11.9260727,13.4800364 Z" id="Shape" fill="#028DFF"></path>
        </g>
    </g>
</svg>