<?xml version="1.0" encoding="UTF-8"?>
<svg width="40px" height="40px" viewBox="0 0 40 40" version="1.1" xmlns="http://www.w3.org/2000/svg" xmlns:xlink="http://www.w3.org/1999/xlink">
    <title>contact_mail</title>
    <g id="contact_mail" stroke="none" stroke-width="1" fill="none" fill-rule="evenodd">
        <g id="UX-UI-Icon_2" fill-rule="nonzero">
            <path d="M20,40 C8.97189091,40 0,31.0281091 0,20 C0,8.97189091 8.97189091,0 20,0 C31.0281091,0 40,8.97189091 40,20 C40,31.0281091 31.0281091,40 20,40 Z M20,1.78821818 C9.958,1.78821818 1.78821818,9.958 1.78821818,20 C1.78821818,30.042 9.958,38.2117818 20,38.2117818 C30.042,38.2117818 38.2117818,30.042 38.2117818,20 C38.2117818,9.958 30.042,1.78821818 20,1.78821818 Z" id="Shape" fill="#0B1153"></path>
            <g id="Group" transform="translate(7.272727, 11.818182)" fill="#028DFF">
                <path d="M23.2429455,16.3561091 L2.2116,16.3561091 C1.00490909,16.3561091 0.0231272727,15.3745091 0.0231272727,14.1678182 L0.0231272727,2.196 C0.0231272727,0.989309091 1.00490909,0.00770909091 2.2116,0.00770909091 L23.2429818,0.00770909091 C24.4496727,0.00770909091 25.4312727,0.989309091 25.4312727,2.196 L25.4312727,14.1678182 C25.4312727,15.3745091 24.4496364,16.3561091 23.2429455,16.3561091 Z M2.2116,1.79592727 C1.99087273,1.79592727 1.81138182,1.97541818 1.81138182,2.196 L1.81138182,14.1678182 C1.81138182,14.3884 1.99087273,14.5678909 2.2116,14.5678909 L23.2429818,14.5678909 C23.4635636,14.5678909 23.6430545,14.3884 23.6430545,14.1678182 L23.6430545,2.196 C23.6430545,1.97541818 23.4635636,1.79592727 23.2429818,1.79592727 L2.2116,1.79592727 Z" id="Shape"></path>
                <path d="M12.7272727,10.1006182 C12.5658182,10.1006182 12.4043636,10.0570545 12.2614182,9.96970909 L0.774981818,2.9592 C0.353563636,2.70189091 0.220327273,2.15174545 0.4776,1.73014545 C0.734727273,1.30872727 1.28505455,1.17512727 1.70665455,1.43276364 L12.7336,8.16294545 L24.0806182,1.42709091 C24.5057091,1.17512727 25.0540364,1.31505455 25.306,1.73949091 C25.5581091,2.16425455 25.4182182,2.71276364 24.9936,2.96487273 L13.1837818,9.97538182 C13.0430182,10.0588727 12.8850545,10.1006182 12.7272727,10.1006182 Z" id="Path"></path>
                <g transform="translate(1.272727, 6.545455)" id="Path">
                    <path d="M21.9997818,9.81065455 C21.7623636,9.81065455 21.5256,9.71683636 21.3496,9.53065455 L13.7845818,1.52367273 C13.4454545,1.16469091 13.4614909,0.598836364 13.8204727,0.259563636 C14.1794545,-0.0792 14.7451273,-0.0635272727 15.0845818,0.295454545 L22.6496,8.30243636 C22.9887273,8.66141818 22.9726909,9.22727273 22.6137091,9.56654545 C22.4409091,9.72967273 22.2201818,9.81065455 21.9997818,9.81065455 Z"></path>
                    <path d="M0.909127273,9.81065455 C0.688727273,9.81065455 0.468,9.72967273 0.2952,9.56654545 C-0.0637818182,9.22727273 -0.0798181818,8.66141818 0.259309091,8.30243636 L7.82447273,0.295454545 C8.16392727,-0.0635272727 8.7296,-0.0792363636 9.08858182,0.259563636 C9.44756364,0.598836364 9.4636,1.16469091 9.12447273,1.52367273 L1.55930909,9.53065455 C1.38334545,9.7168 1.14658182,9.81065455 0.909127273,9.81065455 Z"></path>
                </g>
            </g>
        </g>
    </g>
</svg>