<?xml version="1.0" encoding="UTF-8"?>
<svg width="40px" height="40px" viewBox="0 0 40 40" version="1.1" xmlns="http://www.w3.org/2000/svg" xmlns:xlink="http://www.w3.org/1999/xlink">
    <title>contact_fb</title>
    <g id="contact_fb" stroke="none" stroke-width="1" fill="none" fill-rule="evenodd">
        <g id="UX-UI-Icon_2" fill="#0B1153" fill-rule="nonzero">
            <path d="M20,40 C8.97189091,40 0,31.0281091 0,20 C0,8.97189091 8.97189091,0 20,0 C31.0281091,0 40,8.97189091 40,20 C40,31.0281091 31.0281091,40 20,40 Z M20,1.78821818 C9.958,1.78821818 1.78821818,9.958 1.78821818,20 C1.78821818,30.042 9.958,38.2117818 20,38.2117818 C30.042,38.2117818 38.2117818,30.042 38.2117818,20 C38.2117818,9.958 30.042,1.78821818 20,1.78821818 Z" id="Shape"></path>
        </g>
        <path d="M23.1889673,19.8090103 L20.7172159,19.8090103 L20.7172159,28.9933333 L16.9723026,28.9933333 L16.9723026,19.8090103 L15.1912094,19.8090103 L15.1912094,16.5812737 L16.9723026,16.5812737 L16.9723026,14.4925615 C16.9723026,12.9989069 17.6718503,10.66 20.7505512,10.66 L23.5245428,10.6717709 L23.5245428,13.8048392 L21.5118309,13.8048392 C21.1816879,13.8048392 20.7174628,13.9721366 20.7174628,14.6846529 L20.7174628,16.5842791 L23.5161472,16.5842791 L23.1889673,19.8090103 Z" id="Path" fill="#028DFF" fill-rule="nonzero"></path>
    </g>
</svg>