<?xml version="1.0" encoding="UTF-8"?>
<svg width="40px" height="40px" viewBox="0 0 40 40" version="1.1" xmlns="http://www.w3.org/2000/svg" xmlns:xlink="http://www.w3.org/1999/xlink">
    <title>contact_insta</title>
    <g id="contact_insta" stroke="none" stroke-width="1" fill="none" fill-rule="evenodd">
        <g id="UX-UI-Icon_9" fill="#0B1153" fill-rule="nonzero">
            <path d="M20,40 C8.97189091,40 0,31.0281091 0,20 C0,8.97189091 8.97189091,0 20,0 C31.0281091,0 40,8.97189091 40,20 C40,31.0281091 31.0281091,40 20,40 Z M20,1.78821818 C9.958,1.78821818 1.78821818,9.958 1.78821818,20 C1.78821818,30.042 9.958,38.2117818 20,38.2117818 C30.042,38.2117818 38.2117818,30.042 38.2117818,20 C38.2117818,9.958 30.042,1.78821818 20,1.78821818 Z" id="Shape"></path>
        </g>
        <g id="Group" transform="translate(10.416667, 10.416667)" fill-rule="nonzero">
            <path d="M19.0316628,14.2307433 C19.0316628,16.8782989 16.8782989,19.0316628 14.2307433,19.0316628 L4.80091954,19.0316628 C2.15371648,19.0316628 3.13465728e-13,16.8782989 3.13465728e-13,14.2307433 L3.13465728e-13,4.80091954 C3.13465728e-13,2.15371648 2.15371648,1.40883473e-14 4.80091954,1.40883473e-14 L14.2307433,1.40883473e-14 C16.8782989,1.40883473e-14 19.0316628,2.15371648 19.0316628,4.80091954 L19.0316628,14.2307433 Z" id="Path" fill="#028DFF"></path>
            <path d="M14.2307433,2.07123372 L4.80091954,2.07123372 C3.29578544,2.07123372 2.07123372,3.29578544 2.07123372,4.80091954 L2.07123372,14.2307433 C2.07123372,15.7358774 3.29578544,16.9607816 4.80091954,16.9607816 L14.2307433,16.9607816 C15.7358774,16.9607816 16.9607816,15.7362299 16.9607816,14.2307433 L16.9607816,4.80091954 C16.9607816,3.29578544 15.7362299,2.07123372 14.2307433,2.07123372 Z M9.51583142,14.4175632 C6.81328736,14.4175632 4.61445211,12.218728 4.61445211,9.51583142 C4.61445211,6.81328736 6.81328736,4.61445211 9.51583142,4.61445211 C12.218728,4.61445211 14.4175632,6.81328736 14.4175632,9.51583142 C14.4175632,12.2183755 12.2183755,14.4175632 9.51583142,14.4175632 Z M14.5751264,5.62786207 C13.9353563,5.62786207 13.4150805,5.10758621 13.4150805,4.46816858 C13.4150805,3.82875096 13.9353563,3.3084751 14.5751264,3.3084751 C15.2145441,3.3084751 15.7348199,3.82875096 15.7348199,4.46816858 C15.7348199,5.10758621 15.2145441,5.62786207 14.5751264,5.62786207 Z" id="Shape" fill="#FFFFFF"></path>
            <path d="M9.51583142,6.68568582 C7.95570881,6.68568582 6.68533333,7.95535632 6.68533333,9.51547893 C6.68533333,11.0763065 7.95570881,12.3463295 9.51583142,12.3463295 C11.076659,12.3463295 12.345977,11.0763065 12.345977,9.51547893 C12.345977,7.95570881 11.0763065,6.68568582 9.51583142,6.68568582 Z" id="Path" fill="#FFFFFF"></path>
        </g>
    </g>
</svg>