<svg width="50" height="50" viewBox="0 0 50 50" fill="none" xmlns="http://www.w3.org/2000/svg">
<g clip-path="url(#clip0)">
<path d="M48.3982 5.5852C47.2455 4.43255 45.6636 3.86798 44.0782 3.99865C43.8757 3.0543 43.4061 2.18768 42.7048 1.48639C40.7242 -0.494114 37.5015 -0.494211 35.5208 1.48639C34.9256 2.08162 34.5046 2.80185 34.2666 3.57306C29.1079 1.66208 23.2169 2.90927 19.2778 6.84832C17.9534 8.17276 16.9202 9.71429 16.2067 11.4301C15.3446 13.5034 13.9799 15.3517 12.2598 16.7751C11.8443 17.1189 11.7862 17.7346 12.13 18.1501C12.3232 18.3835 12.602 18.5041 12.8829 18.5041C13.1022 18.5041 13.3228 18.4306 13.505 18.2799C15.4687 16.6548 17.0266 14.5454 18.01 12.1801C18.6249 10.7014 19.516 9.37229 20.6589 8.2295C24.1782 4.71019 29.5039 3.68107 34.0626 5.59106C34.1045 6.01392 34.1991 6.43376 34.3487 6.83982C33.3592 7.90449 32.8039 9.30266 32.8039 10.7767C32.8039 13.9683 35.4004 16.5648 38.592 16.5648C40.2286 16.5648 41.7761 15.8716 42.8656 14.6791C43.0043 14.7233 43.1441 14.7609 43.2845 14.7936C45.2125 19.3591 44.1858 24.7023 40.6588 28.2293C39.5159 29.3721 38.1868 30.2633 36.7082 30.8781C33.7029 32.1277 31.1637 34.2752 29.4351 37.0017C28.5284 36.1498 27.3104 35.6264 25.9771 35.6264C23.4585 35.6264 21.3507 37.4933 20.9773 39.9161C19.0023 40.693 17.6761 42.6 17.6761 44.7749C17.6761 45.521 17.8344 46.2306 18.1175 46.8733C17.6984 46.9163 17.2795 46.9381 16.8624 46.9381C13.6481 46.938 10.5418 45.6751 8.21305 43.3462L5.5421 40.6752C0.764468 35.8976 0.764468 28.1239 5.5421 23.3463C5.70646 23.1819 5.87726 23.0204 6.04963 22.8663C6.45179 22.5069 6.48645 21.8895 6.12707 21.4874C5.76769 21.0852 5.15039 21.0505 4.74814 21.4099C4.54862 21.5883 4.35106 21.7751 4.16092 21.9651C1.47776 24.6485 0 28.216 0 32.0108C0 35.8055 1.47776 39.3732 4.16102 42.0564L6.83187 44.7274C9.53222 47.4277 13.1327 48.8919 16.8592 48.8917C17.7068 48.8917 18.5612 48.815 19.4128 48.6608C20.3384 49.4925 21.5614 49.9997 22.9008 49.9997C24.0259 49.9997 25.0903 49.6494 25.9772 48.999C26.864 49.6494 27.9284 49.9997 29.0534 49.9997C31.9343 49.9997 34.2781 47.6559 34.2781 44.775C34.2781 42.6001 32.9519 40.6931 30.9771 39.9162C30.9156 39.5175 30.8063 39.1343 30.6568 38.7716C32.1632 36.0389 34.5637 33.8853 37.4582 32.6818C39.1739 31.9684 40.7154 30.9351 42.04 29.6107C45.9167 25.7338 47.1852 19.9647 45.4016 14.865C46.5112 14.685 47.5653 14.1653 48.3983 13.3322C50.534 11.1963 50.534 7.72109 48.3982 5.5852V5.5852ZM32.3249 44.7749C32.3249 46.5788 30.8572 48.0464 29.0533 48.0464C28.15 48.0464 27.3087 47.6852 26.6844 47.0294C26.5001 46.8357 26.2445 46.7261 25.9771 46.7261C25.7097 46.7261 25.4541 46.8357 25.2697 47.0293C24.6453 47.6852 23.804 48.0463 22.9007 48.0463C21.0969 48.0463 19.6293 46.5787 19.6293 44.7748C19.6293 43.2605 20.6558 41.9535 22.1256 41.5967C22.5603 41.4911 22.8676 41.1039 22.8717 40.6566C22.8874 38.9599 24.2804 37.5795 25.9771 37.5795C27.6738 37.5795 29.0669 38.9599 29.0824 40.6566C29.0865 41.1039 29.3938 41.4911 29.8285 41.5967C31.2984 41.9536 32.3249 43.2606 32.3249 44.7749ZM47.017 11.951C45.9544 13.0136 44.3326 13.2854 42.9818 12.6275C42.5479 12.4162 42.0246 12.5537 41.7504 12.951C41.0329 13.9908 39.8521 14.6117 38.592 14.6117C36.4774 14.6117 34.757 12.8914 34.757 10.7768C34.757 9.63079 35.2641 8.55362 36.1481 7.82158C36.5103 7.52167 36.6073 7.00623 36.3789 6.59519C35.7051 5.38227 35.9201 3.84943 36.9019 2.86757C37.5116 2.25799 38.3121 1.9533 39.1129 1.9533C39.9135 1.9533 40.7143 2.25809 41.3238 2.86757C41.9286 3.47247 42.2533 4.27756 42.2379 5.13481C42.2324 5.44702 42.3764 5.74312 42.6256 5.9314C42.875 6.11969 43.199 6.1776 43.4979 6.08678C44.7472 5.70777 46.0956 6.04488 47.0171 6.96648C48.3914 8.34053 48.3914 10.5767 47.017 11.951V11.951Z" fill="#0B1153"/>
<path d="M10.7342 26.334C8.32465 26.334 6.36426 28.2943 6.36426 30.7039C6.36426 33.1135 8.32455 35.0738 10.7342 35.0738C13.1438 35.0738 15.1041 33.1135 15.1041 30.7039C15.1041 28.2943 13.1437 26.334 10.7342 26.334ZM10.7342 33.1206C9.40152 33.1206 8.31742 32.0365 8.31742 30.7039C8.31742 29.3713 9.40152 28.2871 10.7342 28.2871C12.0668 28.2871 13.1509 29.3713 13.1509 30.7039C13.1509 32.0365 12.0667 33.1206 10.7342 33.1206Z" fill="#028DFF"/>
<path d="M39.2169 23.3507C39.2169 21.3044 37.5522 19.6396 35.5059 19.6396C33.4597 19.6396 31.7949 21.3044 31.7949 23.3507C31.7949 25.3969 33.4597 27.0617 35.5059 27.0617C37.5522 27.0617 39.2169 25.3969 39.2169 23.3507V23.3507ZM33.7481 23.3507C33.7481 22.3814 34.5367 21.5928 35.5059 21.5928C36.4752 21.5928 37.2638 22.3814 37.2638 23.3507C37.2638 24.3199 36.4752 25.1085 35.5059 25.1085C34.5367 25.1085 33.7481 24.3199 33.7481 23.3507V23.3507Z" fill="#028DFF"/>
<path d="M29.7167 12.8383C29.7167 11.1107 28.3111 9.70508 26.5835 9.70508C24.8558 9.70508 23.4502 11.1107 23.4502 12.8383C23.4502 14.566 24.8558 15.9716 26.5835 15.9716C28.3111 15.9716 29.7167 14.566 29.7167 12.8383ZM25.4033 12.8383C25.4033 12.1875 25.9327 11.6582 26.5834 11.6582C27.2341 11.6582 27.7635 12.1876 27.7635 12.8383C27.7635 13.489 27.2341 14.0184 26.5834 14.0184C25.9327 14.0184 25.4033 13.489 25.4033 12.8383Z" fill="#028DFF"/>
<path d="M19.459 34.0713C19.6406 34.2529 19.8926 34.3574 20.1504 34.3574C20.4072 34.3574 20.6582 34.2529 20.8408 34.0713C21.0225 33.8896 21.127 33.6377 21.127 33.3809C21.127 33.123 21.0225 32.8721 20.8408 32.6904C20.6592 32.5078 20.4072 32.4043 20.1504 32.4043C19.8926 32.4043 19.6406 32.5078 19.459 32.6904C19.2773 32.8721 19.1738 33.123 19.1738 33.3809C19.1738 33.6377 19.2773 33.8896 19.459 34.0713Z" fill="#0B1153"/>
<path d="M13.3398 39.8369C13.1582 40.0186 13.0537 40.2705 13.0537 40.5273C13.0537 40.7842 13.1582 41.0361 13.3398 41.2178C13.5215 41.3994 13.7734 41.5039 14.0303 41.5039C14.2871 41.5039 14.5391 41.3994 14.7207 41.2178C14.9023 41.0361 15.0068 40.7842 15.0068 40.5273C15.0068 40.2705 14.9023 40.0186 14.7207 39.8369C14.5391 39.6553 14.2871 39.5508 14.0303 39.5508C13.7734 39.5508 13.5215 39.6553 13.3398 39.8369Z" fill="#0B1153"/>
<path d="M19.2754 24.9991C19.2754 26.83 20.7649 28.3195 22.5958 28.3195C24.4267 28.3195 25.9161 26.83 25.9161 24.9991C25.9161 23.1682 24.4267 21.6787 22.5958 21.6787C20.7649 21.6787 19.2754 23.1682 19.2754 24.9991ZM23.963 24.9991C23.963 25.753 23.3497 26.3663 22.5958 26.3663C21.8418 26.3663 21.2286 25.753 21.2286 24.9991C21.2286 24.2452 21.8418 23.6319 22.5958 23.6319C23.3497 23.6319 23.963 24.2452 23.963 24.9991Z" fill="#028DFF"/>
<path d="M9.40858 13.5408C11.6882 13.5408 13.5427 11.6862 13.5427 9.40663C13.5427 7.12709 11.6881 5.27246 9.40858 5.27246C7.12904 5.27246 5.27441 7.12709 5.27441 9.40663C5.27441 11.6863 7.12904 13.5408 9.40858 13.5408V13.5408ZM9.40858 7.22562C10.6112 7.22562 11.5896 8.20406 11.5896 9.40663C11.5896 10.6093 10.6111 11.5876 9.40858 11.5876C8.20601 11.5876 7.22758 10.6092 7.22758 9.40663C7.22758 8.20396 8.20592 7.22562 9.40858 7.22562Z" fill="#028DFF"/>
<path d="M9.80859 20.4863C9.99024 20.3047 10.0947 20.0527 10.0947 19.7959C10.0947 19.5391 9.99024 19.2871 9.80859 19.1055C9.62695 18.9238 9.375 18.8193 9.11816 18.8193C8.86035 18.8193 8.60938 18.9238 8.42676 19.1055C8.24512 19.2871 8.1416 19.5391 8.1416 19.7959C8.1416 20.0527 8.24512 20.3047 8.42676 20.4863C8.60938 20.668 8.86035 20.7725 9.11816 20.7725C9.375 20.7725 9.62598 20.668 9.80859 20.4863V20.4863Z" fill="#0B1153"/>
</g>
<defs>
<clipPath id="clip0">
<rect width="50" height="50" fill="white"/>
</clipPath>
</defs>
</svg>
