<svg width="50" height="50" viewBox="0 0 50 50" fill="none" xmlns="http://www.w3.org/2000/svg">
<g clip-path="url(#clip0)">
<path d="M29.5925 6.01376C29.0673 5.8873 28.5406 6.21005 28.4143 6.73427C28.2879 7.25858 28.6105 7.78612 29.1348 7.91249C37.05 9.82059 42.578 16.8473 42.578 25.0002C42.578 34.6928 34.6926 42.5783 24.9999 42.5783C15.3073 42.5783 7.42187 34.6928 7.42187 25.0002C7.42187 16.8476 12.9496 9.82088 20.8644 7.91259C21.3887 7.78612 21.7113 7.25858 21.5849 6.73437C21.4584 6.21005 20.9307 5.88769 20.4067 6.01386C16.2192 7.02353 12.4254 9.44412 9.7241 12.8298C6.94023 16.3189 5.46875 20.5274 5.46875 25.0002C5.46875 35.7697 14.2304 44.5314 24.9999 44.5314C35.7694 44.5314 44.5311 35.7698 44.5311 25.0002C44.5311 20.5273 43.0596 16.3187 40.2755 12.8295C37.5742 9.44393 33.7802 7.02333 29.5925 6.01376V6.01376Z" fill="#0B1153"/>
<path d="M49.4106 22.6511L48.2681 20.5195L48.4586 17.8844C48.6418 16.1953 47.9681 14.5469 46.6541 13.4719L44.7576 11.919L44.0116 9.67174C43.5938 7.95348 42.2888 6.57243 40.5957 6.06101L38.2548 5.35379L36.462 3.28153C35.4013 2.03378 33.7957 1.38476 32.1669 1.54482L29.7372 1.78691L27.3489 0.588767C25.877 -0.195898 24.1221 -0.196581 22.6501 0.58867L20.5186 1.73105L17.8836 1.54042C16.1938 1.35722 14.546 2.03105 13.4711 3.34501L11.9181 5.24148L9.67091 5.98748C7.95256 6.40525 6.57151 7.71022 6.06008 9.40328L5.35296 11.7442L3.2807 13.5371C2.03305 14.5978 1.38364 16.2031 1.54389 17.8322L1.78598 20.2618L0.58784 22.6502C-0.196923 24.1222 -0.197509 25.8769 0.587644 27.3491L1.73012 29.4805L1.5395 32.1157C1.35639 33.8047 2.03012 35.4531 3.34408 36.5282L5.24056 38.0811L5.98655 40.3284C6.40422 42.0466 7.7092 43.4277 9.40245 43.9391L11.7433 44.6462L13.5361 46.7186C14.597 47.9662 16.2018 48.6156 17.8312 48.4553L20.2608 48.2132L22.649 49.4111C23.3852 49.8037 24.1922 50.0001 24.9993 50.0001C25.8057 50.0001 26.6121 49.804 27.348 49.4115L29.4795 48.2691L32.1146 48.4598C33.8035 48.6426 35.452 47.9691 36.5271 46.6552L38.0801 44.7587L40.3274 44.0128C42.0456 43.595 43.4265 42.2901 43.938 40.5969L44.6452 38.2561L46.7175 36.4632C47.9652 35.4025 48.6146 33.7972 48.4543 32.168L48.2122 29.7386L49.4102 27.3502C50.195 25.8781 50.1957 24.1232 49.4106 22.6511V22.6511ZM47.6826 26.4388C47.6783 26.4468 47.6741 26.4548 47.6701 26.4628L46.3394 29.1156C46.2565 29.2808 46.2222 29.4663 46.2405 29.6504L46.5107 32.3603C46.6082 33.3512 46.2126 34.3288 45.4461 34.9805L43.1533 36.9641C43.0135 37.0851 42.9109 37.2432 42.8575 37.4202L42.0683 40.032C41.7538 41.0734 40.8992 41.8741 39.8382 42.1214C39.8092 42.1282 39.7805 42.1363 39.7522 42.1456L37.1962 42.994C37.0207 43.0523 36.8653 43.1591 36.7482 43.3022L35.0158 45.418C34.3578 46.2223 33.347 46.633 32.3126 46.5166C32.2997 46.5151 32.2867 46.514 32.2739 46.513L29.3382 46.3007C29.1533 46.2874 28.9694 46.3267 28.8065 46.414L26.4272 47.6892C25.5299 48.1677 24.4583 48.1657 23.5603 47.6836C23.5523 47.6794 23.5443 47.6752 23.5363 47.6712L20.8836 46.3405C20.7472 46.2722 20.5972 46.2368 20.4457 46.2368C20.4134 46.2368 20.3811 46.2384 20.3488 46.2416L17.6388 46.5116C16.648 46.6095 15.6704 46.2135 15.0186 45.4471L13.0351 43.1543C12.9142 43.0145 12.756 42.9118 12.5789 42.8584L9.9671 42.0695C8.9256 41.7549 8.12502 40.9003 7.87765 39.8392C7.87092 39.8102 7.86281 39.7816 7.85344 39.7533L7.0051 37.1971C6.9469 37.0216 6.84006 36.8664 6.697 36.7493L4.58128 35.0168C3.77699 34.3588 3.36625 33.3482 3.48265 32.3136C3.48412 32.3008 3.48529 32.2879 3.48627 32.2749L3.69857 29.339C3.71195 29.1547 3.67259 28.9703 3.58529 28.8073L2.31 26.4282C1.83149 25.531 1.83354 24.4593 2.31547 23.5613C2.31977 23.5534 2.32387 23.5454 2.32787 23.5374L3.65853 20.8846C3.74144 20.7194 3.77572 20.5339 3.75736 20.3499L3.48734 17.6398C3.38988 16.6489 3.78548 15.6713 4.55198 15.0196L6.84475 13.036C6.98459 12.915 7.08713 12.7569 7.14065 12.5799L7.92971 9.96803C8.24425 8.92662 9.09884 8.12604 10.16 7.87858C10.189 7.87184 10.2176 7.86374 10.2459 7.85436L12.8019 7.00593C12.9773 6.94773 13.1326 6.84089 13.2497 6.69782L14.9823 4.58201C15.6403 3.77782 16.6512 3.36727 17.6854 3.48348C17.6983 3.48495 17.7112 3.48612 17.7241 3.4871L20.6598 3.6994C20.8437 3.71249 21.0286 3.67342 21.1916 3.58612L23.5708 2.31093C24.4679 1.83241 25.5397 1.83437 26.4375 2.3164C26.4454 2.3206 26.4535 2.3248 26.4616 2.3288L29.1144 3.65946C29.2796 3.74237 29.4651 3.77674 29.6491 3.75829L32.3591 3.48827C33.3499 3.39061 34.3275 3.78641 34.9793 4.55291L36.9629 6.84568C37.0838 6.98552 37.242 7.08806 37.419 7.14157L40.0308 7.93063C41.0722 8.24518 41.8728 9.09987 42.1203 10.1609C42.127 10.1899 42.1351 10.2185 42.1445 10.2468L42.9929 12.8028C43.0512 12.9783 43.158 13.1335 43.301 13.2506L45.4169 14.9831C46.2212 15.6411 46.6318 16.6516 46.5154 17.6863C46.5139 17.6991 46.5128 17.712 46.5119 17.725L46.2996 20.6609C46.2862 20.8452 46.3255 21.0296 46.4128 21.1926L47.688 23.5718C48.1667 24.4692 48.1646 25.5409 47.6826 26.4388V26.4388Z" fill="#0B1153"/>
<path d="M20.7613 19.6788C20.6047 19.3487 20.2692 19.1199 19.8796 19.1199H14.7197C14.1804 19.1199 13.7432 19.5571 13.7432 20.0964V34.8782C13.7432 35.4176 14.1804 35.8548 14.7197 35.8548H19.8796C20.2843 35.8548 20.6315 35.6086 20.7796 35.2577C21.524 35.3622 22.2909 35.5739 23.0893 35.795C24.2897 36.1273 25.5308 36.471 26.8204 36.471H32.4579C34.2007 36.471 35.6129 35.5471 36.2357 33.9993C36.539 33.2452 36.5921 32.4626 36.4148 31.8074C36.7391 31.5159 37.0131 31.153 37.2203 30.7293C37.6403 29.8707 37.7242 28.9052 37.4861 28.092C37.9299 27.6633 38.2609 27.0972 38.434 26.4297C38.5958 25.8057 38.593 25.19 38.449 24.6565C39.3299 24.1383 39.9231 23.1969 39.9231 22.1362C39.9231 21.3042 39.5992 20.5377 39.0109 19.9777C38.4461 19.44 37.6938 19.1438 36.8926 19.1438L28.9462 19.144C28.3425 18.3867 28.1546 17.359 28.4984 16.5317C29.2038 14.8339 29.1601 13.3967 28.3569 11.8719C27.7606 10.7401 26.1573 9.61338 24.8097 9.80576C23.9952 9.92217 23.4058 10.4978 23.233 11.3459C23.1821 11.5954 23.1681 11.8649 23.152 12.177C23.1122 12.947 23.0575 14.0014 22.3928 15.2748C21.9424 16.138 21.7921 17.0258 21.6594 17.809C21.4695 18.9311 21.3774 19.4716 20.7613 19.6788V19.6788ZM15.6963 21.073H18.903V33.9017H15.6963V21.073ZM23.5852 18.135C23.699 17.4631 23.8166 16.7681 24.1244 16.1786C24.986 14.5278 25.0589 13.1195 25.1026 12.2781C25.1142 12.054 25.1252 11.8423 25.1468 11.7358C25.1469 11.7351 25.1471 11.7344 25.1473 11.7337C25.4861 11.7384 26.3198 12.1957 26.6289 12.7824C27.1638 13.7976 27.1816 14.6108 26.6949 15.7825C26.2559 16.8389 26.2889 18.0648 26.7231 19.1547C26.248 19.2209 25.882 19.6276 25.882 20.1209C25.882 20.6601 26.3193 21.0974 26.8585 21.0974L36.8926 21.0971C37.1901 21.0971 37.4643 21.202 37.6643 21.3924C37.8038 21.5251 37.97 21.7621 37.97 22.1363C37.97 22.6601 37.4898 23.113 36.9214 23.1254L34.4078 23.1801C33.8687 23.1918 33.441 23.6384 33.4528 24.1777C33.4644 24.7097 33.8991 25.133 34.4287 25.133C34.4359 25.133 34.4431 25.133 34.4504 25.1328L36.5438 25.0873C36.612 25.2808 36.6476 25.6498 36.5038 26.0726C36.3815 26.4322 36.053 27.0353 35.2269 27.0353C34.6876 27.0353 34.2503 27.4725 34.2503 28.0118C34.2503 28.5512 34.6876 28.9884 35.2269 28.9884C35.3749 28.9884 35.5202 28.9792 35.6624 28.9612C35.6745 29.2375 35.6177 29.5612 35.466 29.8712C35.2867 30.2376 34.9323 30.6745 34.2622 30.6745C33.723 30.6745 33.2857 31.1117 33.2857 31.6511C33.2857 32.1904 33.723 32.6276 34.2622 32.6276C34.3633 32.6276 34.4633 32.6232 34.562 32.6143C34.5595 32.8017 34.5214 33.0359 34.4149 33.2922C34.2617 33.6607 33.7644 34.5179 32.4581 34.5179H26.8206C25.7964 34.5179 24.7347 34.2239 23.6107 33.9127C22.7163 33.665 21.7992 33.4113 20.8563 33.298V21.6552C23.0549 21.2568 23.3581 19.4769 23.5852 18.135V18.135Z" fill="#028DFF"/>
<path d="M25.0003 7.42188C25.5397 7.42188 25.9769 6.98467 25.9769 6.44531C25.9769 5.90596 25.5397 5.46875 25.0003 5.46875H24.9996C24.4603 5.46875 24.0234 5.90596 24.0234 6.44531C24.0234 6.98467 24.4609 7.42188 25.0003 7.42188Z" fill="#0B1153"/>
</g>
<defs>
<clipPath id="clip0">
<rect width="50" height="50" fill="white"/>
</clipPath>
</defs>
</svg>
