<svg width="50" height="50" viewBox="0 0 50 50" fill="none" xmlns="http://www.w3.org/2000/svg">
<path d="M36.3565 4.95703H2.81553C1.26299 4.95703 0 6.22002 0 7.77247V27.8952C0 29.4476 1.26299 30.7107 2.81553 30.7107H4.99044V38.2019C4.99044 38.6789 5.27774 39.1091 5.71857 39.2917C5.86446 39.3522 6.01779 39.3815 6.16974 39.3815C6.47677 39.3815 6.77833 39.2616 7.00402 39.036L15.3293 30.7108H16.9996C17.6511 30.7108 18.1791 30.1828 18.1791 29.5313C18.1791 28.8797 17.6509 28.3517 16.9996 28.3517C16.9996 28.3517 14.7838 28.3533 14.7607 28.3556C14.4861 28.3743 14.2165 28.4874 14.0066 28.6972L7.34943 35.3544C7.34943 35.3544 7.34738 29.4567 7.34357 29.4261C7.29035 28.824 6.78527 28.3517 6.16935 28.3517H2.81553C2.56377 28.3517 2.35909 28.1469 2.35909 27.8953V7.77247C2.35909 7.52071 2.56387 7.31602 2.81553 7.31602H36.3565C36.6083 7.31602 36.813 7.52081 36.813 7.77247V15.4927C36.813 16.1442 37.3412 16.6722 37.9925 16.6722C38.6437 16.6722 39.172 16.1442 39.172 15.4927V7.77247C39.172 6.22002 37.909 4.95703 36.3565 4.95703Z" fill="#0B1153"/>
<path d="M47.1842 19.3838H23.7062C22.1537 19.3838 20.8906 20.6468 20.8906 22.1993V35.9269C20.8906 37.4793 22.1536 38.7424 23.7062 38.7424H38.4048L44.3599 44.6975C44.5856 44.9232 44.8872 45.043 45.1942 45.043C45.3461 45.043 45.4994 45.0136 45.6453 44.9532C46.086 44.7706 46.3735 44.3406 46.3735 43.8634V38.7423H47.1841C48.7366 38.7423 49.9996 37.4793 49.9996 35.9268V22.1992C49.9997 20.6468 48.7368 19.3838 47.1842 19.3838ZM47.8361 35.9269C47.8361 36.1785 47.436 36.5786 47.1843 36.5786H45.1945C44.5738 36.5786 44.2615 36.863 44.2149 37.4719C44.2118 37.4977 44.2099 41.4065 44.2099 41.4065L39.732 36.9285C39.7275 36.924 39.7228 36.9198 39.7183 36.9153C39.7015 36.8989 39.6856 36.8846 39.6705 36.8718C39.4629 36.6898 39.1917 36.5785 38.8941 36.5785H23.7062C23.4544 36.5785 23.0544 36.1784 23.0544 35.9268V22.1992C23.0544 21.7771 23.2418 21.5475 23.7062 21.5475H47.1843C47.436 21.5475 47.8361 21.9476 47.8361 22.1992V35.9269Z" fill="#0B1153"/>
<path d="M35.4461 27.8838C34.795 27.8838 34.2666 28.4122 34.2666 29.0633C34.2666 29.7144 34.795 30.2428 35.4461 30.2428C36.0973 30.2428 36.6256 29.7144 36.6256 29.0633C36.6256 28.4122 36.0972 27.8838 35.4461 27.8838Z" fill="#028DFF"/>
<path d="M30.3194 12.7549H8.85235C8.20098 12.7549 7.67285 13.2829 7.67285 13.9344C7.67285 14.5858 8.20108 15.1139 8.85235 15.1139H30.3194C30.9708 15.1139 31.4989 14.5858 31.4989 13.9344C31.4989 13.2829 30.9708 12.7549 30.3194 12.7549Z" fill="#028DFF"/>
<path d="M16.9993 20.5537H8.85235C8.20098 20.5537 7.67285 21.0817 7.67285 21.7332C7.67285 22.3847 8.20108 22.9127 8.85235 22.9127H16.9993C17.6508 22.9127 18.1788 22.3847 18.1788 21.7332C18.1788 21.0817 17.6507 20.5537 16.9993 20.5537Z" fill="#028DFF"/>
<path d="M29.9647 27.8838C29.3137 27.8838 28.7852 28.4122 28.7852 29.0633C28.7852 29.7144 29.3137 30.2428 29.9647 30.2428C30.6158 30.2428 31.1441 29.7144 31.1441 29.0633C31.1441 28.4122 30.6158 27.8838 29.9647 27.8838Z" fill="#028DFF"/>
<path d="M40.9256 27.8838C40.2745 27.8838 39.7461 28.4122 39.7461 29.0633C39.7461 29.7144 40.2745 30.2428 40.9256 30.2428C41.5768 30.2428 42.1051 29.7144 42.1051 29.0633C42.1051 28.4122 41.5767 27.8838 40.9256 27.8838Z" fill="#028DFF"/>
</svg>
